<mxfile host="Electron" agent="Mozilla/5.0 (Windows NT 10.0; Win64; x64) AppleWebKit/537.36 (KHTML, like Gecko) draw.io/25.0.2 Chrome/128.0.6613.186 Electron/32.2.5 Safari/537.36" version="25.0.2" pages="5">
  <diagram name="main" id="Bsn5412VyUjM1NXNT0KS">
    <mxGraphModel dx="992" dy="552" grid="1" gridSize="10" guides="1" tooltips="1" connect="1" arrows="1" fold="1" page="1" pageScale="1" pageWidth="827" pageHeight="1169" math="0" shadow="0">
      <root>
        <mxCell id="0" />
        <mxCell id="1" parent="0" />
        <mxCell id="71t_PpGx56uNyofJ1hGk-1" value="" style="edgeStyle=orthogonalEdgeStyle;rounded=0;orthogonalLoop=1;jettySize=auto;html=1;" edge="1" parent="1" source="71t_PpGx56uNyofJ1hGk-2" target="71t_PpGx56uNyofJ1hGk-4">
          <mxGeometry relative="1" as="geometry" />
        </mxCell>
        <mxCell id="71t_PpGx56uNyofJ1hGk-2" value="Начало" style="ellipse;whiteSpace=wrap;html=1;" vertex="1" parent="1">
          <mxGeometry x="340" y="80" width="120" height="40" as="geometry" />
        </mxCell>
        <mxCell id="71t_PpGx56uNyofJ1hGk-3" value="" style="edgeStyle=orthogonalEdgeStyle;rounded=0;orthogonalLoop=1;jettySize=auto;html=1;" edge="1" parent="1" source="71t_PpGx56uNyofJ1hGk-4" target="71t_PpGx56uNyofJ1hGk-8">
          <mxGeometry relative="1" as="geometry" />
        </mxCell>
        <mxCell id="71t_PpGx56uNyofJ1hGk-4" value="int main()" style="shape=process;whiteSpace=wrap;html=1;backgroundOutline=1;" vertex="1" parent="1">
          <mxGeometry x="340" y="160" width="120" height="40" as="geometry" />
        </mxCell>
        <mxCell id="71t_PpGx56uNyofJ1hGk-5" value="" style="endArrow=none;dashed=1;html=1;rounded=0;" edge="1" parent="1" target="71t_PpGx56uNyofJ1hGk-6">
          <mxGeometry width="50" height="50" relative="1" as="geometry">
            <mxPoint x="400" y="140" as="sourcePoint" />
            <mxPoint x="560" y="140" as="targetPoint" />
          </mxGeometry>
        </mxCell>
        <mxCell id="71t_PpGx56uNyofJ1hGk-6" value="&lt;div&gt;#include &amp;lt;iostream&amp;gt;&lt;/div&gt;&lt;div&gt;#include &amp;lt;clocale&amp;gt;&lt;/div&gt;&lt;div&gt;using namespace std;&lt;/div&gt;&lt;div&gt;&lt;br&gt;&lt;/div&gt;&lt;div&gt;struct Node{...};&lt;/div&gt;&lt;div&gt;struct Queue{...};&lt;/div&gt;&lt;div&gt;&lt;br&gt;&lt;/div&gt;&lt;div&gt;&lt;div&gt;void del(Queue&amp;amp; queue, char key);&lt;/div&gt;&lt;div&gt;void insert(Queue&amp;amp; queue, int k, int num);&lt;/div&gt;&lt;/div&gt;" style="strokeWidth=2;html=1;shape=mxgraph.flowchart.annotation_1;align=left;pointerEvents=1;" vertex="1" parent="1">
          <mxGeometry x="560" y="70" width="50" height="140" as="geometry" />
        </mxCell>
        <mxCell id="71t_PpGx56uNyofJ1hGk-7" value="" style="edgeStyle=orthogonalEdgeStyle;rounded=0;orthogonalLoop=1;jettySize=auto;html=1;" edge="1" parent="1" source="71t_PpGx56uNyofJ1hGk-8" target="71t_PpGx56uNyofJ1hGk-10">
          <mxGeometry relative="1" as="geometry" />
        </mxCell>
        <mxCell id="71t_PpGx56uNyofJ1hGk-8" value="setlocale(LC_ALL, &quot;RU&quot;);" style="whiteSpace=wrap;html=1;" vertex="1" parent="1">
          <mxGeometry x="330" y="220" width="140" height="40" as="geometry" />
        </mxCell>
        <mxCell id="71t_PpGx56uNyofJ1hGk-9" value="" style="edgeStyle=orthogonalEdgeStyle;rounded=0;orthogonalLoop=1;jettySize=auto;html=1;" edge="1" parent="1" source="71t_PpGx56uNyofJ1hGk-10" target="71t_PpGx56uNyofJ1hGk-12">
          <mxGeometry relative="1" as="geometry" />
        </mxCell>
        <mxCell id="71t_PpGx56uNyofJ1hGk-10" value="Queue queue;" style="whiteSpace=wrap;html=1;" vertex="1" parent="1">
          <mxGeometry x="330" y="280" width="140" height="40" as="geometry" />
        </mxCell>
        <mxCell id="71t_PpGx56uNyofJ1hGk-11" value="" style="edgeStyle=orthogonalEdgeStyle;rounded=0;orthogonalLoop=1;jettySize=auto;html=1;" edge="1" parent="1" source="71t_PpGx56uNyofJ1hGk-12" target="71t_PpGx56uNyofJ1hGk-14">
          <mxGeometry relative="1" as="geometry" />
        </mxCell>
        <mxCell id="71t_PpGx56uNyofJ1hGk-12" value="int size;" style="whiteSpace=wrap;html=1;" vertex="1" parent="1">
          <mxGeometry x="330" y="340" width="140" height="40" as="geometry" />
        </mxCell>
        <mxCell id="71t_PpGx56uNyofJ1hGk-13" value="" style="edgeStyle=orthogonalEdgeStyle;rounded=0;orthogonalLoop=1;jettySize=auto;html=1;" edge="1" parent="1" source="71t_PpGx56uNyofJ1hGk-14" target="71t_PpGx56uNyofJ1hGk-16">
          <mxGeometry relative="1" as="geometry" />
        </mxCell>
        <mxCell id="71t_PpGx56uNyofJ1hGk-14" value="cout &lt;&lt; &quot;Введите количество элементов: &quot;;" style="shape=parallelogram;perimeter=parallelogramPerimeter;whiteSpace=wrap;html=1;fixedSize=1;" vertex="1" parent="1">
          <mxGeometry x="260" y="400" width="280" height="40" as="geometry" />
        </mxCell>
        <mxCell id="71t_PpGx56uNyofJ1hGk-15" value="" style="edgeStyle=orthogonalEdgeStyle;rounded=0;orthogonalLoop=1;jettySize=auto;html=1;" edge="1" parent="1" source="71t_PpGx56uNyofJ1hGk-16" target="71t_PpGx56uNyofJ1hGk-18">
          <mxGeometry relative="1" as="geometry" />
        </mxCell>
        <mxCell id="71t_PpGx56uNyofJ1hGk-16" value="cin &amp;gt;&amp;gt; size;" style="shape=parallelogram;perimeter=parallelogramPerimeter;whiteSpace=wrap;html=1;fixedSize=1;" vertex="1" parent="1">
          <mxGeometry x="340" y="460" width="120" height="40" as="geometry" />
        </mxCell>
        <mxCell id="71t_PpGx56uNyofJ1hGk-17" value="" style="edgeStyle=orthogonalEdgeStyle;rounded=0;orthogonalLoop=1;jettySize=auto;html=1;" edge="1" parent="1" source="71t_PpGx56uNyofJ1hGk-18" target="71t_PpGx56uNyofJ1hGk-21">
          <mxGeometry relative="1" as="geometry" />
        </mxCell>
        <mxCell id="71t_PpGx56uNyofJ1hGk-18" value="char value;" style="whiteSpace=wrap;html=1;" vertex="1" parent="1">
          <mxGeometry x="340" y="520" width="120" height="40" as="geometry" />
        </mxCell>
        <mxCell id="71t_PpGx56uNyofJ1hGk-19" value="" style="edgeStyle=orthogonalEdgeStyle;rounded=0;orthogonalLoop=1;jettySize=auto;html=1;" edge="1" parent="1" source="71t_PpGx56uNyofJ1hGk-21" target="71t_PpGx56uNyofJ1hGk-23">
          <mxGeometry relative="1" as="geometry" />
        </mxCell>
        <mxCell id="71t_PpGx56uNyofJ1hGk-20" style="edgeStyle=orthogonalEdgeStyle;rounded=0;orthogonalLoop=1;jettySize=auto;html=1;entryX=0.5;entryY=0;entryDx=0;entryDy=0;" edge="1" parent="1" source="71t_PpGx56uNyofJ1hGk-21" target="71t_PpGx56uNyofJ1hGk-33">
          <mxGeometry relative="1" as="geometry">
            <mxPoint x="400" y="880" as="targetPoint" />
            <Array as="points">
              <mxPoint x="520" y="600" />
              <mxPoint x="520" y="860" />
              <mxPoint x="400" y="860" />
            </Array>
          </mxGeometry>
        </mxCell>
        <mxCell id="71t_PpGx56uNyofJ1hGk-21" value="for (int i = 1; i &amp;lt;= size; i++)" style="shape=hexagon;perimeter=hexagonPerimeter2;whiteSpace=wrap;html=1;fixedSize=1;" vertex="1" parent="1">
          <mxGeometry x="315" y="580" width="170" height="40" as="geometry" />
        </mxCell>
        <mxCell id="71t_PpGx56uNyofJ1hGk-22" value="" style="edgeStyle=orthogonalEdgeStyle;rounded=0;orthogonalLoop=1;jettySize=auto;html=1;" edge="1" parent="1" source="71t_PpGx56uNyofJ1hGk-23" target="71t_PpGx56uNyofJ1hGk-27">
          <mxGeometry relative="1" as="geometry" />
        </mxCell>
        <mxCell id="71t_PpGx56uNyofJ1hGk-23" value="cout &amp;lt;&amp;lt; &quot;Введите элемент: &quot;;" style="shape=parallelogram;perimeter=parallelogramPerimeter;whiteSpace=wrap;html=1;fixedSize=1;" vertex="1" parent="1">
          <mxGeometry x="300" y="660" width="200" height="40" as="geometry" />
        </mxCell>
        <mxCell id="71t_PpGx56uNyofJ1hGk-24" value="{" style="text;html=1;align=center;verticalAlign=middle;resizable=0;points=[];autosize=1;strokeColor=none;fillColor=none;" vertex="1" parent="1">
          <mxGeometry x="370" y="620" width="30" height="30" as="geometry" />
        </mxCell>
        <mxCell id="71t_PpGx56uNyofJ1hGk-25" value="1" style="text;html=1;align=center;verticalAlign=middle;resizable=0;points=[];autosize=1;strokeColor=none;fillColor=none;" vertex="1" parent="1">
          <mxGeometry x="399" y="630" width="30" height="30" as="geometry" />
        </mxCell>
        <mxCell id="71t_PpGx56uNyofJ1hGk-26" value="" style="edgeStyle=orthogonalEdgeStyle;rounded=0;orthogonalLoop=1;jettySize=auto;html=1;" edge="1" parent="1" source="71t_PpGx56uNyofJ1hGk-27" target="71t_PpGx56uNyofJ1hGk-29">
          <mxGeometry relative="1" as="geometry" />
        </mxCell>
        <mxCell id="71t_PpGx56uNyofJ1hGk-27" value="cin &amp;gt;&amp;gt; value;" style="shape=parallelogram;perimeter=parallelogramPerimeter;whiteSpace=wrap;html=1;fixedSize=1;" vertex="1" parent="1">
          <mxGeometry x="340" y="720" width="120" height="40" as="geometry" />
        </mxCell>
        <mxCell id="71t_PpGx56uNyofJ1hGk-28" style="edgeStyle=orthogonalEdgeStyle;rounded=0;orthogonalLoop=1;jettySize=auto;html=1;entryX=0;entryY=0.5;entryDx=0;entryDy=0;" edge="1" parent="1" source="71t_PpGx56uNyofJ1hGk-29" target="71t_PpGx56uNyofJ1hGk-21">
          <mxGeometry relative="1" as="geometry">
            <Array as="points">
              <mxPoint x="400" y="840" />
              <mxPoint x="280" y="840" />
              <mxPoint x="280" y="600" />
            </Array>
          </mxGeometry>
        </mxCell>
        <mxCell id="71t_PpGx56uNyofJ1hGk-29" value="queue.push(value);" style="whiteSpace=wrap;html=1;" vertex="1" parent="1">
          <mxGeometry x="340" y="780" width="120" height="40" as="geometry" />
        </mxCell>
        <mxCell id="71t_PpGx56uNyofJ1hGk-30" value="}" style="text;html=1;align=center;verticalAlign=middle;resizable=0;points=[];autosize=1;strokeColor=none;fillColor=none;" vertex="1" parent="1">
          <mxGeometry x="399" y="820" width="30" height="30" as="geometry" />
        </mxCell>
        <mxCell id="71t_PpGx56uNyofJ1hGk-31" value="0" style="text;html=1;align=center;verticalAlign=middle;resizable=0;points=[];autosize=1;strokeColor=none;fillColor=none;" vertex="1" parent="1">
          <mxGeometry x="495" y="570" width="30" height="30" as="geometry" />
        </mxCell>
        <mxCell id="71t_PpGx56uNyofJ1hGk-32" style="edgeStyle=orthogonalEdgeStyle;rounded=0;orthogonalLoop=1;jettySize=auto;html=1;entryX=0.5;entryY=0;entryDx=0;entryDy=0;" edge="1" parent="1" source="71t_PpGx56uNyofJ1hGk-33" target="71t_PpGx56uNyofJ1hGk-35">
          <mxGeometry relative="1" as="geometry" />
        </mxCell>
        <mxCell id="71t_PpGx56uNyofJ1hGk-33" value="queue.show();" style="rounded=0;whiteSpace=wrap;html=1;" vertex="1" parent="1">
          <mxGeometry x="340" y="880" width="120" height="40" as="geometry" />
        </mxCell>
        <mxCell id="71t_PpGx56uNyofJ1hGk-34" value="" style="edgeStyle=orthogonalEdgeStyle;rounded=0;orthogonalLoop=1;jettySize=auto;html=1;" edge="1" parent="1" source="71t_PpGx56uNyofJ1hGk-35" target="71t_PpGx56uNyofJ1hGk-37">
          <mxGeometry relative="1" as="geometry" />
        </mxCell>
        <mxCell id="71t_PpGx56uNyofJ1hGk-35" value="char key;" style="whiteSpace=wrap;html=1;" vertex="1" parent="1">
          <mxGeometry x="330" y="940" width="140" height="40" as="geometry" />
        </mxCell>
        <mxCell id="71t_PpGx56uNyofJ1hGk-36" value="" style="edgeStyle=orthogonalEdgeStyle;rounded=0;orthogonalLoop=1;jettySize=auto;html=1;" edge="1" parent="1" source="71t_PpGx56uNyofJ1hGk-37" target="71t_PpGx56uNyofJ1hGk-39">
          <mxGeometry relative="1" as="geometry" />
        </mxCell>
        <mxCell id="71t_PpGx56uNyofJ1hGk-37" value="cout &amp;lt;&amp;lt; &quot;Введите ключ для удаления: &quot;;" style="shape=parallelogram;perimeter=parallelogramPerimeter;whiteSpace=wrap;html=1;fixedSize=1;" vertex="1" parent="1">
          <mxGeometry x="260" y="1000" width="280" height="40" as="geometry" />
        </mxCell>
        <mxCell id="71t_PpGx56uNyofJ1hGk-38" value="" style="edgeStyle=orthogonalEdgeStyle;rounded=0;orthogonalLoop=1;jettySize=auto;html=1;" edge="1" parent="1" source="71t_PpGx56uNyofJ1hGk-39" target="71t_PpGx56uNyofJ1hGk-41">
          <mxGeometry relative="1" as="geometry" />
        </mxCell>
        <mxCell id="71t_PpGx56uNyofJ1hGk-39" value="cin &amp;gt;&amp;gt; key;" style="shape=parallelogram;perimeter=parallelogramPerimeter;whiteSpace=wrap;html=1;fixedSize=1;" vertex="1" parent="1">
          <mxGeometry x="340" y="1060" width="120" height="40" as="geometry" />
        </mxCell>
        <mxCell id="71t_PpGx56uNyofJ1hGk-40" value="" style="edgeStyle=orthogonalEdgeStyle;rounded=0;orthogonalLoop=1;jettySize=auto;html=1;" edge="1" parent="1" source="71t_PpGx56uNyofJ1hGk-41" target="71t_PpGx56uNyofJ1hGk-43">
          <mxGeometry relative="1" as="geometry" />
        </mxCell>
        <mxCell id="71t_PpGx56uNyofJ1hGk-41" value="del(queue, key);" style="whiteSpace=wrap;html=1;" vertex="1" parent="1">
          <mxGeometry x="340" y="1120" width="120" height="40" as="geometry" />
        </mxCell>
        <mxCell id="71t_PpGx56uNyofJ1hGk-42" value="" style="edgeStyle=orthogonalEdgeStyle;rounded=0;orthogonalLoop=1;jettySize=auto;html=1;" edge="1" parent="1" source="71t_PpGx56uNyofJ1hGk-43" target="71t_PpGx56uNyofJ1hGk-45">
          <mxGeometry relative="1" as="geometry" />
        </mxCell>
        <mxCell id="71t_PpGx56uNyofJ1hGk-43" value="cout &amp;lt;&amp;lt; &quot;Очередь после удаления по ключу:\n&quot;;" style="shape=parallelogram;perimeter=parallelogramPerimeter;whiteSpace=wrap;html=1;fixedSize=1;" vertex="1" parent="1">
          <mxGeometry x="250" y="1180" width="300" height="40" as="geometry" />
        </mxCell>
        <mxCell id="71t_PpGx56uNyofJ1hGk-44" style="edgeStyle=orthogonalEdgeStyle;rounded=0;orthogonalLoop=1;jettySize=auto;html=1;entryX=0.5;entryY=0;entryDx=0;entryDy=0;" edge="1" parent="1" source="71t_PpGx56uNyofJ1hGk-45" target="71t_PpGx56uNyofJ1hGk-47">
          <mxGeometry relative="1" as="geometry" />
        </mxCell>
        <mxCell id="71t_PpGx56uNyofJ1hGk-45" value="queue.show();" style="whiteSpace=wrap;html=1;" vertex="1" parent="1">
          <mxGeometry x="340" y="1240" width="120" height="40" as="geometry" />
        </mxCell>
        <mxCell id="71t_PpGx56uNyofJ1hGk-46" value="" style="edgeStyle=orthogonalEdgeStyle;rounded=0;orthogonalLoop=1;jettySize=auto;html=1;" edge="1" parent="1" source="71t_PpGx56uNyofJ1hGk-47" target="71t_PpGx56uNyofJ1hGk-49">
          <mxGeometry relative="1" as="geometry" />
        </mxCell>
        <mxCell id="71t_PpGx56uNyofJ1hGk-47" value="int k, num;" style="whiteSpace=wrap;html=1;" vertex="1" parent="1">
          <mxGeometry x="330" y="1300" width="140" height="40" as="geometry" />
        </mxCell>
        <mxCell id="71t_PpGx56uNyofJ1hGk-48" value="" style="edgeStyle=orthogonalEdgeStyle;rounded=0;orthogonalLoop=1;jettySize=auto;html=1;" edge="1" parent="1" source="71t_PpGx56uNyofJ1hGk-49" target="71t_PpGx56uNyofJ1hGk-51">
          <mxGeometry relative="1" as="geometry" />
        </mxCell>
        <mxCell id="71t_PpGx56uNyofJ1hGk-49" value="cout &amp;lt;&amp;lt; &quot;Введите номер, перед которым нужно добавить элементы: &quot;;" style="shape=parallelogram;perimeter=parallelogramPerimeter;whiteSpace=wrap;html=1;fixedSize=1;" vertex="1" parent="1">
          <mxGeometry x="225" y="1360" width="350" height="40" as="geometry" />
        </mxCell>
        <mxCell id="71t_PpGx56uNyofJ1hGk-50" style="edgeStyle=orthogonalEdgeStyle;rounded=0;orthogonalLoop=1;jettySize=auto;html=1;entryX=0.5;entryY=0;entryDx=0;entryDy=0;" edge="1" parent="1" source="71t_PpGx56uNyofJ1hGk-51" target="71t_PpGx56uNyofJ1hGk-53">
          <mxGeometry relative="1" as="geometry" />
        </mxCell>
        <mxCell id="71t_PpGx56uNyofJ1hGk-51" value="cin &amp;gt;&amp;gt; num;" style="shape=parallelogram;perimeter=parallelogramPerimeter;whiteSpace=wrap;html=1;fixedSize=1;" vertex="1" parent="1">
          <mxGeometry x="340" y="1420" width="120" height="40" as="geometry" />
        </mxCell>
        <mxCell id="71t_PpGx56uNyofJ1hGk-52" value="" style="edgeStyle=orthogonalEdgeStyle;rounded=0;orthogonalLoop=1;jettySize=auto;html=1;" edge="1" parent="1" source="71t_PpGx56uNyofJ1hGk-53" target="71t_PpGx56uNyofJ1hGk-55">
          <mxGeometry relative="1" as="geometry" />
        </mxCell>
        <mxCell id="71t_PpGx56uNyofJ1hGk-53" value="cout &amp;lt;&amp;lt; &quot;Введите количество добавляемых элементов: &quot;;" style="shape=parallelogram;perimeter=parallelogramPerimeter;whiteSpace=wrap;html=1;fixedSize=1;" vertex="1" parent="1">
          <mxGeometry x="225" y="1480" width="350" height="40" as="geometry" />
        </mxCell>
        <mxCell id="71t_PpGx56uNyofJ1hGk-54" style="edgeStyle=orthogonalEdgeStyle;rounded=0;orthogonalLoop=1;jettySize=auto;html=1;entryX=0.5;entryY=0;entryDx=0;entryDy=0;" edge="1" parent="1" source="71t_PpGx56uNyofJ1hGk-55" target="71t_PpGx56uNyofJ1hGk-57">
          <mxGeometry relative="1" as="geometry" />
        </mxCell>
        <mxCell id="71t_PpGx56uNyofJ1hGk-55" value="cin &amp;gt;&amp;gt; k;" style="shape=parallelogram;perimeter=parallelogramPerimeter;whiteSpace=wrap;html=1;fixedSize=1;" vertex="1" parent="1">
          <mxGeometry x="340" y="1540" width="120" height="40" as="geometry" />
        </mxCell>
        <mxCell id="71t_PpGx56uNyofJ1hGk-56" value="" style="edgeStyle=orthogonalEdgeStyle;rounded=0;orthogonalLoop=1;jettySize=auto;html=1;" edge="1" parent="1" source="71t_PpGx56uNyofJ1hGk-57" target="71t_PpGx56uNyofJ1hGk-59">
          <mxGeometry relative="1" as="geometry" />
        </mxCell>
        <mxCell id="71t_PpGx56uNyofJ1hGk-57" value="insert(queue, k, num);" style="whiteSpace=wrap;html=1;" vertex="1" parent="1">
          <mxGeometry x="340" y="1600" width="120" height="40" as="geometry" />
        </mxCell>
        <mxCell id="71t_PpGx56uNyofJ1hGk-58" value="" style="edgeStyle=orthogonalEdgeStyle;rounded=0;orthogonalLoop=1;jettySize=auto;html=1;" edge="1" parent="1" source="71t_PpGx56uNyofJ1hGk-59" target="71t_PpGx56uNyofJ1hGk-61">
          <mxGeometry relative="1" as="geometry" />
        </mxCell>
        <mxCell id="71t_PpGx56uNyofJ1hGk-59" value="cout &amp;lt;&amp;lt; &quot;Очередь после добавления элементов:\n&quot;;" style="shape=parallelogram;perimeter=parallelogramPerimeter;whiteSpace=wrap;html=1;fixedSize=1;" vertex="1" parent="1">
          <mxGeometry x="237.5" y="1660" width="325" height="40" as="geometry" />
        </mxCell>
        <mxCell id="71t_PpGx56uNyofJ1hGk-60" style="edgeStyle=orthogonalEdgeStyle;rounded=0;orthogonalLoop=1;jettySize=auto;html=1;" edge="1" parent="1" source="71t_PpGx56uNyofJ1hGk-61">
          <mxGeometry relative="1" as="geometry">
            <mxPoint x="400" y="1780" as="targetPoint" />
          </mxGeometry>
        </mxCell>
        <mxCell id="71t_PpGx56uNyofJ1hGk-61" value="queue.show();" style="whiteSpace=wrap;html=1;" vertex="1" parent="1">
          <mxGeometry x="340" y="1720" width="120" height="40" as="geometry" />
        </mxCell>
        <mxCell id="71t_PpGx56uNyofJ1hGk-62" value="return 0;" style="ellipse;whiteSpace=wrap;html=1;" vertex="1" parent="1">
          <mxGeometry x="340" y="1780" width="120" height="40" as="geometry" />
        </mxCell>
        <mxCell id="71t_PpGx56uNyofJ1hGk-63" value="}" style="text;html=1;align=center;verticalAlign=middle;resizable=0;points=[];autosize=1;strokeColor=none;fillColor=none;" vertex="1" parent="1">
          <mxGeometry x="399" y="1820" width="30" height="30" as="geometry" />
        </mxCell>
      </root>
    </mxGraphModel>
  </diagram>
  <diagram id="RxKUJoo_5NknnJbr8VWS" name="del">
    <mxGraphModel dx="1290" dy="717" grid="1" gridSize="10" guides="1" tooltips="1" connect="1" arrows="1" fold="1" page="1" pageScale="1" pageWidth="827" pageHeight="1169" math="0" shadow="0">
      <root>
        <mxCell id="0" />
        <mxCell id="1" parent="0" />
        <mxCell id="pnV3EfOllBzxblZudd5O-6" value="" style="edgeStyle=orthogonalEdgeStyle;rounded=0;orthogonalLoop=1;jettySize=auto;html=1;" edge="1" parent="1" source="pnV3EfOllBzxblZudd5O-2" target="pnV3EfOllBzxblZudd5O-5">
          <mxGeometry relative="1" as="geometry" />
        </mxCell>
        <mxCell id="pnV3EfOllBzxblZudd5O-2" value="void del(Queue&amp;amp; queue, char key)" style="shape=process;whiteSpace=wrap;html=1;backgroundOutline=1;size=0.043478260869565216;" vertex="1" parent="1">
          <mxGeometry x="290" y="80" width="220" height="40" as="geometry" />
        </mxCell>
        <mxCell id="pnV3EfOllBzxblZudd5O-9" value="" style="edgeStyle=orthogonalEdgeStyle;rounded=0;orthogonalLoop=1;jettySize=auto;html=1;" edge="1" parent="1" source="pnV3EfOllBzxblZudd5O-5" target="pnV3EfOllBzxblZudd5O-8">
          <mxGeometry relative="1" as="geometry" />
        </mxCell>
        <mxCell id="pnV3EfOllBzxblZudd5O-5" value="int size = queue.size;" style="whiteSpace=wrap;html=1;" vertex="1" parent="1">
          <mxGeometry x="340" y="160" width="120" height="40" as="geometry" />
        </mxCell>
        <mxCell id="pnV3EfOllBzxblZudd5O-7" value="{" style="text;html=1;align=center;verticalAlign=middle;resizable=0;points=[];autosize=1;strokeColor=none;fillColor=none;" vertex="1" parent="1">
          <mxGeometry x="370" y="120" width="30" height="30" as="geometry" />
        </mxCell>
        <mxCell id="pnV3EfOllBzxblZudd5O-11" value="" style="edgeStyle=orthogonalEdgeStyle;rounded=0;orthogonalLoop=1;jettySize=auto;html=1;" edge="1" parent="1" source="pnV3EfOllBzxblZudd5O-8" target="pnV3EfOllBzxblZudd5O-10">
          <mxGeometry relative="1" as="geometry" />
        </mxCell>
        <mxCell id="pnV3EfOllBzxblZudd5O-27" style="edgeStyle=orthogonalEdgeStyle;rounded=0;orthogonalLoop=1;jettySize=auto;html=1;entryX=0.5;entryY=0;entryDx=0;entryDy=0;" edge="1" parent="1" source="pnV3EfOllBzxblZudd5O-8" target="-Z8e9ogU3Ysnt0Ta9sCd-1">
          <mxGeometry relative="1" as="geometry">
            <mxPoint x="760" y="300" as="targetPoint" />
          </mxGeometry>
        </mxCell>
        <mxCell id="pnV3EfOllBzxblZudd5O-8" value="for (int i = 0; i &amp;lt; size; i++)" style="shape=hexagon;perimeter=hexagonPerimeter2;whiteSpace=wrap;html=1;fixedSize=1;" vertex="1" parent="1">
          <mxGeometry x="305" y="220" width="190" height="40" as="geometry" />
        </mxCell>
        <mxCell id="pnV3EfOllBzxblZudd5O-14" value="" style="edgeStyle=orthogonalEdgeStyle;rounded=0;orthogonalLoop=1;jettySize=auto;html=1;exitX=0;exitY=0.5;exitDx=0;exitDy=0;entryX=0.5;entryY=0;entryDx=0;entryDy=0;" edge="1" parent="1" source="pnV3EfOllBzxblZudd5O-10" target="pnV3EfOllBzxblZudd5O-13">
          <mxGeometry relative="1" as="geometry">
            <Array as="points">
              <mxPoint x="240" y="320" />
              <mxPoint x="240" y="360" />
            </Array>
          </mxGeometry>
        </mxCell>
        <mxCell id="pnV3EfOllBzxblZudd5O-17" value="" style="edgeStyle=orthogonalEdgeStyle;rounded=0;orthogonalLoop=1;jettySize=auto;html=1;exitX=1;exitY=0.5;exitDx=0;exitDy=0;" edge="1" parent="1" source="pnV3EfOllBzxblZudd5O-10" target="pnV3EfOllBzxblZudd5O-16">
          <mxGeometry relative="1" as="geometry" />
        </mxCell>
        <mxCell id="pnV3EfOllBzxblZudd5O-10" value="if (queue.head-&amp;gt;data == key)" style="rhombus;whiteSpace=wrap;html=1;" vertex="1" parent="1">
          <mxGeometry x="280" y="300" width="240" height="40" as="geometry" />
        </mxCell>
        <mxCell id="pnV3EfOllBzxblZudd5O-12" value="1" style="text;html=1;align=center;verticalAlign=middle;resizable=0;points=[];autosize=1;strokeColor=none;fillColor=none;" vertex="1" parent="1">
          <mxGeometry x="400" y="270" width="30" height="30" as="geometry" />
        </mxCell>
        <mxCell id="pnV3EfOllBzxblZudd5O-23" style="edgeStyle=orthogonalEdgeStyle;rounded=0;orthogonalLoop=1;jettySize=auto;html=1;exitX=0.5;exitY=1;exitDx=0;exitDy=0;" edge="1" parent="1" source="pnV3EfOllBzxblZudd5O-13">
          <mxGeometry relative="1" as="geometry">
            <mxPoint x="400" y="480" as="targetPoint" />
            <Array as="points">
              <mxPoint x="240" y="480" />
            </Array>
          </mxGeometry>
        </mxCell>
        <mxCell id="pnV3EfOllBzxblZudd5O-13" value="queue.pop();" style="whiteSpace=wrap;html=1;" vertex="1" parent="1">
          <mxGeometry x="170" y="360" width="140" height="40" as="geometry" />
        </mxCell>
        <mxCell id="pnV3EfOllBzxblZudd5O-15" value="1" style="text;html=1;align=center;verticalAlign=middle;resizable=0;points=[];autosize=1;strokeColor=none;fillColor=none;" vertex="1" parent="1">
          <mxGeometry x="240" y="290" width="30" height="30" as="geometry" />
        </mxCell>
        <mxCell id="pnV3EfOllBzxblZudd5O-20" value="" style="edgeStyle=orthogonalEdgeStyle;rounded=0;orthogonalLoop=1;jettySize=auto;html=1;" edge="1" parent="1" source="pnV3EfOllBzxblZudd5O-16" target="pnV3EfOllBzxblZudd5O-19">
          <mxGeometry relative="1" as="geometry" />
        </mxCell>
        <mxCell id="pnV3EfOllBzxblZudd5O-16" value="queue.push(queue.head-&amp;gt;data);" style="whiteSpace=wrap;html=1;" vertex="1" parent="1">
          <mxGeometry x="480" y="360" width="190" height="40" as="geometry" />
        </mxCell>
        <mxCell id="pnV3EfOllBzxblZudd5O-18" value="0" style="text;html=1;align=center;verticalAlign=middle;resizable=0;points=[];autosize=1;strokeColor=none;fillColor=none;" vertex="1" parent="1">
          <mxGeometry x="545" y="290" width="30" height="30" as="geometry" />
        </mxCell>
        <mxCell id="pnV3EfOllBzxblZudd5O-22" style="edgeStyle=orthogonalEdgeStyle;rounded=0;orthogonalLoop=1;jettySize=auto;html=1;exitX=0.5;exitY=1;exitDx=0;exitDy=0;" edge="1" parent="1" source="pnV3EfOllBzxblZudd5O-19">
          <mxGeometry relative="1" as="geometry">
            <mxPoint x="400" y="480" as="targetPoint" />
            <Array as="points">
              <mxPoint x="575" y="480" />
            </Array>
          </mxGeometry>
        </mxCell>
        <mxCell id="pnV3EfOllBzxblZudd5O-19" value="queue.pop();" style="whiteSpace=wrap;html=1;" vertex="1" parent="1">
          <mxGeometry x="480" y="420" width="190" height="40" as="geometry" />
        </mxCell>
        <mxCell id="pnV3EfOllBzxblZudd5O-21" value="{" style="text;html=1;align=center;verticalAlign=middle;resizable=0;points=[];autosize=1;strokeColor=none;fillColor=none;" vertex="1" parent="1">
          <mxGeometry x="545" y="328" width="30" height="30" as="geometry" />
        </mxCell>
        <mxCell id="pnV3EfOllBzxblZudd5O-25" value="}" style="text;html=1;align=center;verticalAlign=middle;resizable=0;points=[];autosize=1;strokeColor=none;fillColor=none;" vertex="1" parent="1">
          <mxGeometry x="575" y="460" width="30" height="30" as="geometry" />
        </mxCell>
        <mxCell id="pnV3EfOllBzxblZudd5O-26" value="" style="endArrow=classic;html=1;rounded=0;entryX=0;entryY=0.5;entryDx=0;entryDy=0;" edge="1" parent="1" target="pnV3EfOllBzxblZudd5O-8">
          <mxGeometry width="50" height="50" relative="1" as="geometry">
            <mxPoint x="400" y="480" as="sourcePoint" />
            <mxPoint x="450" y="510" as="targetPoint" />
            <Array as="points">
              <mxPoint x="400" y="500" />
              <mxPoint x="140" y="500" />
              <mxPoint x="140" y="380" />
              <mxPoint x="140" y="240" />
            </Array>
          </mxGeometry>
        </mxCell>
        <mxCell id="-Z8e9ogU3Ysnt0Ta9sCd-1" value="return;" style="ellipse;whiteSpace=wrap;html=1;" vertex="1" parent="1">
          <mxGeometry x="700" y="300" width="120" height="40" as="geometry" />
        </mxCell>
        <mxCell id="-Z8e9ogU3Ysnt0Ta9sCd-2" value="0" style="text;html=1;align=center;verticalAlign=middle;resizable=0;points=[];autosize=1;strokeColor=none;fillColor=none;" vertex="1" parent="1">
          <mxGeometry x="735" y="208" width="30" height="30" as="geometry" />
        </mxCell>
        <mxCell id="-Z8e9ogU3Ysnt0Ta9sCd-3" value="}" style="text;html=1;align=center;verticalAlign=middle;resizable=0;points=[];autosize=1;strokeColor=none;fillColor=none;" vertex="1" parent="1">
          <mxGeometry x="760" y="340" width="30" height="30" as="geometry" />
        </mxCell>
      </root>
    </mxGraphModel>
  </diagram>
  <diagram id="AEco04d09gUVOPS6h8G7" name="insert">
    <mxGraphModel dx="860" dy="478" grid="1" gridSize="10" guides="1" tooltips="1" connect="1" arrows="1" fold="1" page="1" pageScale="1" pageWidth="827" pageHeight="1169" math="0" shadow="0">
      <root>
        <mxCell id="0" />
        <mxCell id="1" parent="0" />
        <mxCell id="9X3cFY8fLyIspjUaPSum-1" value="" style="edgeStyle=orthogonalEdgeStyle;rounded=0;orthogonalLoop=1;jettySize=auto;html=1;entryX=0.5;entryY=0;entryDx=0;entryDy=0;" edge="1" parent="1" source="9X3cFY8fLyIspjUaPSum-2" target="9X3cFY8fLyIspjUaPSum-7">
          <mxGeometry relative="1" as="geometry">
            <mxPoint x="400" y="120" as="targetPoint" />
          </mxGeometry>
        </mxCell>
        <mxCell id="9X3cFY8fLyIspjUaPSum-2" value="void insert(Queue&amp;amp; queue, int k, int num)" style="shape=process;whiteSpace=wrap;html=1;backgroundOutline=1;size=0.03571428571428571;" vertex="1" parent="1">
          <mxGeometry x="270" y="40" width="250" height="40" as="geometry" />
        </mxCell>
        <mxCell id="9X3cFY8fLyIspjUaPSum-5" value="" style="edgeStyle=orthogonalEdgeStyle;rounded=0;orthogonalLoop=1;jettySize=auto;html=1;" edge="1" parent="1" source="9X3cFY8fLyIspjUaPSum-7" target="9X3cFY8fLyIspjUaPSum-9">
          <mxGeometry relative="1" as="geometry" />
        </mxCell>
        <mxCell id="9X3cFY8fLyIspjUaPSum-6" style="edgeStyle=orthogonalEdgeStyle;rounded=0;orthogonalLoop=1;jettySize=auto;html=1;entryX=0.5;entryY=0;entryDx=0;entryDy=0;" edge="1" parent="1" source="9X3cFY8fLyIspjUaPSum-7" target="9X3cFY8fLyIspjUaPSum-17">
          <mxGeometry relative="1" as="geometry">
            <mxPoint x="395" y="360" as="targetPoint" />
            <Array as="points">
              <mxPoint x="525" y="140" />
              <mxPoint x="525" y="340" />
              <mxPoint x="395" y="340" />
              <mxPoint x="395" y="360" />
            </Array>
          </mxGeometry>
        </mxCell>
        <mxCell id="9X3cFY8fLyIspjUaPSum-7" value="for (int i = 1; i &amp;lt; num; i++)" style="shape=hexagon;perimeter=hexagonPerimeter2;whiteSpace=wrap;html=1;fixedSize=1;rounded=0;" vertex="1" parent="1">
          <mxGeometry x="310" y="120" width="170" height="40" as="geometry" />
        </mxCell>
        <mxCell id="9X3cFY8fLyIspjUaPSum-8" value="" style="edgeStyle=orthogonalEdgeStyle;rounded=0;orthogonalLoop=1;jettySize=auto;html=1;" edge="1" parent="1" source="9X3cFY8fLyIspjUaPSum-9" target="9X3cFY8fLyIspjUaPSum-11">
          <mxGeometry relative="1" as="geometry" />
        </mxCell>
        <mxCell id="9X3cFY8fLyIspjUaPSum-9" value="queue.push(queue.head-&amp;gt;data);" style="whiteSpace=wrap;html=1;rounded=0;" vertex="1" parent="1">
          <mxGeometry x="295" y="200" width="200" height="40" as="geometry" />
        </mxCell>
        <mxCell id="9X3cFY8fLyIspjUaPSum-10" style="edgeStyle=orthogonalEdgeStyle;rounded=0;orthogonalLoop=1;jettySize=auto;html=1;entryX=0;entryY=0.5;entryDx=0;entryDy=0;" edge="1" parent="1" source="9X3cFY8fLyIspjUaPSum-11" target="9X3cFY8fLyIspjUaPSum-7">
          <mxGeometry relative="1" as="geometry">
            <Array as="points">
              <mxPoint x="395" y="320" />
              <mxPoint x="275" y="320" />
              <mxPoint x="275" y="140" />
            </Array>
          </mxGeometry>
        </mxCell>
        <mxCell id="9X3cFY8fLyIspjUaPSum-11" value="queue.pop();" style="whiteSpace=wrap;html=1;rounded=0;" vertex="1" parent="1">
          <mxGeometry x="325" y="260" width="140" height="40" as="geometry" />
        </mxCell>
        <mxCell id="9X3cFY8fLyIspjUaPSum-12" value="1" style="text;html=1;align=center;verticalAlign=middle;resizable=0;points=[];autosize=1;strokeColor=none;fillColor=none;" vertex="1" parent="1">
          <mxGeometry x="395" y="170" width="30" height="30" as="geometry" />
        </mxCell>
        <mxCell id="9X3cFY8fLyIspjUaPSum-13" value="{" style="text;html=1;align=center;verticalAlign=middle;resizable=0;points=[];autosize=1;strokeColor=none;fillColor=none;" vertex="1" parent="1">
          <mxGeometry x="365" y="160" width="30" height="30" as="geometry" />
        </mxCell>
        <mxCell id="9X3cFY8fLyIspjUaPSum-14" value="}" style="text;html=1;align=center;verticalAlign=middle;resizable=0;points=[];autosize=1;strokeColor=none;fillColor=none;" vertex="1" parent="1">
          <mxGeometry x="395" y="300" width="30" height="30" as="geometry" />
        </mxCell>
        <mxCell id="9X3cFY8fLyIspjUaPSum-15" value="0" style="text;html=1;align=center;verticalAlign=middle;resizable=0;points=[];autosize=1;strokeColor=none;fillColor=none;" vertex="1" parent="1">
          <mxGeometry x="505" y="110" width="30" height="30" as="geometry" />
        </mxCell>
        <mxCell id="9X3cFY8fLyIspjUaPSum-16" value="" style="edgeStyle=orthogonalEdgeStyle;rounded=0;orthogonalLoop=1;jettySize=auto;html=1;" edge="1" parent="1" source="9X3cFY8fLyIspjUaPSum-17" target="9X3cFY8fLyIspjUaPSum-20">
          <mxGeometry relative="1" as="geometry" />
        </mxCell>
        <mxCell id="9X3cFY8fLyIspjUaPSum-17" value="char value;" style="whiteSpace=wrap;html=1;" vertex="1" parent="1">
          <mxGeometry x="335" y="360" width="120" height="40" as="geometry" />
        </mxCell>
        <mxCell id="9X3cFY8fLyIspjUaPSum-18" value="" style="edgeStyle=orthogonalEdgeStyle;rounded=0;orthogonalLoop=1;jettySize=auto;html=1;" edge="1" parent="1" source="9X3cFY8fLyIspjUaPSum-20" target="9X3cFY8fLyIspjUaPSum-22">
          <mxGeometry relative="1" as="geometry" />
        </mxCell>
        <mxCell id="9X3cFY8fLyIspjUaPSum-19" style="edgeStyle=orthogonalEdgeStyle;rounded=0;orthogonalLoop=1;jettySize=auto;html=1;entryX=0.5;entryY=0;entryDx=0;entryDy=0;" edge="1" parent="1" source="9X3cFY8fLyIspjUaPSum-20" target="9X3cFY8fLyIspjUaPSum-32">
          <mxGeometry relative="1" as="geometry">
            <mxPoint x="395" y="720" as="targetPoint" />
            <Array as="points">
              <mxPoint x="525" y="440" />
              <mxPoint x="525" y="700" />
              <mxPoint x="395" y="700" />
            </Array>
          </mxGeometry>
        </mxCell>
        <mxCell id="9X3cFY8fLyIspjUaPSum-20" value="for (int i = 1; i &amp;lt;= k; i++)" style="shape=hexagon;perimeter=hexagonPerimeter2;whiteSpace=wrap;html=1;fixedSize=1;" vertex="1" parent="1">
          <mxGeometry x="310" y="420" width="170" height="40" as="geometry" />
        </mxCell>
        <mxCell id="9X3cFY8fLyIspjUaPSum-21" value="" style="edgeStyle=orthogonalEdgeStyle;rounded=0;orthogonalLoop=1;jettySize=auto;html=1;" edge="1" parent="1" source="9X3cFY8fLyIspjUaPSum-22" target="9X3cFY8fLyIspjUaPSum-26">
          <mxGeometry relative="1" as="geometry" />
        </mxCell>
        <mxCell id="9X3cFY8fLyIspjUaPSum-22" value="cout &amp;lt;&amp;lt; &quot;Введите новый элемент: &quot;;" style="shape=parallelogram;perimeter=parallelogramPerimeter;whiteSpace=wrap;html=1;fixedSize=1;" vertex="1" parent="1">
          <mxGeometry x="280" y="500" width="230" height="40" as="geometry" />
        </mxCell>
        <mxCell id="9X3cFY8fLyIspjUaPSum-23" value="{" style="text;html=1;align=center;verticalAlign=middle;resizable=0;points=[];autosize=1;strokeColor=none;fillColor=none;" vertex="1" parent="1">
          <mxGeometry x="362.5" y="460" width="30" height="30" as="geometry" />
        </mxCell>
        <mxCell id="9X3cFY8fLyIspjUaPSum-24" value="1" style="text;html=1;align=center;verticalAlign=middle;resizable=0;points=[];autosize=1;strokeColor=none;fillColor=none;" vertex="1" parent="1">
          <mxGeometry x="391.5" y="470" width="30" height="30" as="geometry" />
        </mxCell>
        <mxCell id="9X3cFY8fLyIspjUaPSum-25" value="" style="edgeStyle=orthogonalEdgeStyle;rounded=0;orthogonalLoop=1;jettySize=auto;html=1;" edge="1" parent="1" source="9X3cFY8fLyIspjUaPSum-26" target="9X3cFY8fLyIspjUaPSum-28">
          <mxGeometry relative="1" as="geometry" />
        </mxCell>
        <mxCell id="9X3cFY8fLyIspjUaPSum-26" value="cin &amp;gt;&amp;gt; value;" style="shape=parallelogram;perimeter=parallelogramPerimeter;whiteSpace=wrap;html=1;fixedSize=1;" vertex="1" parent="1">
          <mxGeometry x="335" y="560" width="120" height="40" as="geometry" />
        </mxCell>
        <mxCell id="9X3cFY8fLyIspjUaPSum-27" style="edgeStyle=orthogonalEdgeStyle;rounded=0;orthogonalLoop=1;jettySize=auto;html=1;entryX=0;entryY=0.5;entryDx=0;entryDy=0;" edge="1" parent="1" source="9X3cFY8fLyIspjUaPSum-28" target="9X3cFY8fLyIspjUaPSum-20">
          <mxGeometry relative="1" as="geometry">
            <Array as="points">
              <mxPoint x="395" y="680" />
              <mxPoint x="265" y="680" />
              <mxPoint x="265" y="440" />
            </Array>
          </mxGeometry>
        </mxCell>
        <mxCell id="9X3cFY8fLyIspjUaPSum-28" value="queue.push(value);" style="whiteSpace=wrap;html=1;" vertex="1" parent="1">
          <mxGeometry x="335" y="620" width="120" height="40" as="geometry" />
        </mxCell>
        <mxCell id="9X3cFY8fLyIspjUaPSum-29" value="}" style="text;html=1;align=center;verticalAlign=middle;resizable=0;points=[];autosize=1;strokeColor=none;fillColor=none;" vertex="1" parent="1">
          <mxGeometry x="391.5" y="660" width="30" height="30" as="geometry" />
        </mxCell>
        <mxCell id="9X3cFY8fLyIspjUaPSum-30" value="0" style="text;html=1;align=center;verticalAlign=middle;resizable=0;points=[];autosize=1;strokeColor=none;fillColor=none;" vertex="1" parent="1">
          <mxGeometry x="495" y="410" width="30" height="30" as="geometry" />
        </mxCell>
        <mxCell id="9X3cFY8fLyIspjUaPSum-31" style="edgeStyle=orthogonalEdgeStyle;rounded=0;orthogonalLoop=1;jettySize=auto;html=1;entryX=0.5;entryY=0;entryDx=0;entryDy=0;" edge="1" parent="1" source="9X3cFY8fLyIspjUaPSum-32" target="9X3cFY8fLyIspjUaPSum-35">
          <mxGeometry relative="1" as="geometry" />
        </mxCell>
        <mxCell id="9X3cFY8fLyIspjUaPSum-32" value="int size = queue.size;" style="rounded=0;whiteSpace=wrap;html=1;" vertex="1" parent="1">
          <mxGeometry x="315" y="720" width="160" height="40" as="geometry" />
        </mxCell>
        <mxCell id="9X3cFY8fLyIspjUaPSum-33" value="" style="edgeStyle=orthogonalEdgeStyle;rounded=0;orthogonalLoop=1;jettySize=auto;html=1;" edge="1" parent="1" source="9X3cFY8fLyIspjUaPSum-35" target="9X3cFY8fLyIspjUaPSum-37">
          <mxGeometry relative="1" as="geometry" />
        </mxCell>
        <mxCell id="9X3cFY8fLyIspjUaPSum-34" style="edgeStyle=orthogonalEdgeStyle;rounded=0;orthogonalLoop=1;jettySize=auto;html=1;entryX=0.5;entryY=0;entryDx=0;entryDy=0;" edge="1" parent="1" source="9X3cFY8fLyIspjUaPSum-35" target="9X3cFY8fLyIspjUaPSum-44">
          <mxGeometry relative="1" as="geometry">
            <mxPoint x="395" y="1020" as="targetPoint" />
            <Array as="points">
              <mxPoint x="525" y="800" />
              <mxPoint x="525" y="1000" />
              <mxPoint x="395" y="1000" />
            </Array>
          </mxGeometry>
        </mxCell>
        <mxCell id="9X3cFY8fLyIspjUaPSum-35" value="for (int i = num; i &amp;lt;= size - k; i++)" style="shape=hexagon;perimeter=hexagonPerimeter2;whiteSpace=wrap;html=1;fixedSize=1;rounded=0;" vertex="1" parent="1">
          <mxGeometry x="300" y="780" width="190" height="40" as="geometry" />
        </mxCell>
        <mxCell id="9X3cFY8fLyIspjUaPSum-36" value="" style="edgeStyle=orthogonalEdgeStyle;rounded=0;orthogonalLoop=1;jettySize=auto;html=1;" edge="1" parent="1" source="9X3cFY8fLyIspjUaPSum-37" target="9X3cFY8fLyIspjUaPSum-39">
          <mxGeometry relative="1" as="geometry" />
        </mxCell>
        <mxCell id="9X3cFY8fLyIspjUaPSum-37" value="queue.push(queue.head-&amp;gt;data);" style="whiteSpace=wrap;html=1;rounded=0;" vertex="1" parent="1">
          <mxGeometry x="295" y="860" width="200" height="40" as="geometry" />
        </mxCell>
        <mxCell id="9X3cFY8fLyIspjUaPSum-38" style="edgeStyle=orthogonalEdgeStyle;rounded=0;orthogonalLoop=1;jettySize=auto;html=1;entryX=0;entryY=0.5;entryDx=0;entryDy=0;" edge="1" parent="1" source="9X3cFY8fLyIspjUaPSum-39" target="9X3cFY8fLyIspjUaPSum-35">
          <mxGeometry relative="1" as="geometry">
            <Array as="points">
              <mxPoint x="395" y="980" />
              <mxPoint x="275" y="980" />
              <mxPoint x="275" y="800" />
            </Array>
          </mxGeometry>
        </mxCell>
        <mxCell id="9X3cFY8fLyIspjUaPSum-39" value="queue.pop();" style="whiteSpace=wrap;html=1;rounded=0;" vertex="1" parent="1">
          <mxGeometry x="325" y="920" width="140" height="40" as="geometry" />
        </mxCell>
        <mxCell id="9X3cFY8fLyIspjUaPSum-40" value="1" style="text;html=1;align=center;verticalAlign=middle;resizable=0;points=[];autosize=1;strokeColor=none;fillColor=none;" vertex="1" parent="1">
          <mxGeometry x="395" y="830" width="30" height="30" as="geometry" />
        </mxCell>
        <mxCell id="9X3cFY8fLyIspjUaPSum-41" value="{" style="text;html=1;align=center;verticalAlign=middle;resizable=0;points=[];autosize=1;strokeColor=none;fillColor=none;" vertex="1" parent="1">
          <mxGeometry x="365" y="820" width="30" height="30" as="geometry" />
        </mxCell>
        <mxCell id="9X3cFY8fLyIspjUaPSum-42" value="}" style="text;html=1;align=center;verticalAlign=middle;resizable=0;points=[];autosize=1;strokeColor=none;fillColor=none;" vertex="1" parent="1">
          <mxGeometry x="395" y="960" width="30" height="30" as="geometry" />
        </mxCell>
        <mxCell id="9X3cFY8fLyIspjUaPSum-43" value="0" style="text;html=1;align=center;verticalAlign=middle;resizable=0;points=[];autosize=1;strokeColor=none;fillColor=none;" vertex="1" parent="1">
          <mxGeometry x="505" y="770" width="30" height="30" as="geometry" />
        </mxCell>
        <mxCell id="9X3cFY8fLyIspjUaPSum-44" value="return;" style="ellipse;whiteSpace=wrap;html=1;" vertex="1" parent="1">
          <mxGeometry x="335" y="1020" width="120" height="40" as="geometry" />
        </mxCell>
        <mxCell id="9X3cFY8fLyIspjUaPSum-45" value="}" style="text;html=1;align=center;verticalAlign=middle;resizable=0;points=[];autosize=1;strokeColor=none;fillColor=none;" vertex="1" parent="1">
          <mxGeometry x="391.5" y="1060" width="30" height="30" as="geometry" />
        </mxCell>
        <mxCell id="9X3cFY8fLyIspjUaPSum-46" value="{" style="text;html=1;align=center;verticalAlign=middle;resizable=0;points=[];autosize=1;strokeColor=none;fillColor=none;" vertex="1" parent="1">
          <mxGeometry x="370" y="80" width="30" height="30" as="geometry" />
        </mxCell>
      </root>
    </mxGraphModel>
  </diagram>
  <diagram id="Uv3a0oD4S5JNl_pzN6GH" name="Node">
    <mxGraphModel dx="1290" dy="717" grid="1" gridSize="10" guides="1" tooltips="1" connect="1" arrows="1" fold="1" page="1" pageScale="1" pageWidth="827" pageHeight="1169" math="0" shadow="0">
      <root>
        <mxCell id="0" />
        <mxCell id="1" parent="0" />
        <mxCell id="l2CdwO93gyP9gQ8bODWF-2" value="" style="edgeStyle=orthogonalEdgeStyle;rounded=0;orthogonalLoop=1;jettySize=auto;html=1;" edge="1" parent="1" source="l2CdwO93gyP9gQ8bODWF-3" target="l2CdwO93gyP9gQ8bODWF-5">
          <mxGeometry relative="1" as="geometry" />
        </mxCell>
        <mxCell id="l2CdwO93gyP9gQ8bODWF-3" value="struct Node" style="shape=process;whiteSpace=wrap;html=1;backgroundOutline=1;fillColor=#f5f5f5;fontColor=#333333;strokeColor=#666666;" vertex="1" parent="1">
          <mxGeometry x="340" y="80" width="120" height="40" as="geometry" />
        </mxCell>
        <mxCell id="l2CdwO93gyP9gQ8bODWF-4" value="" style="edgeStyle=orthogonalEdgeStyle;rounded=0;orthogonalLoop=1;jettySize=auto;html=1;" edge="1" parent="1" source="l2CdwO93gyP9gQ8bODWF-5" target="l2CdwO93gyP9gQ8bODWF-8">
          <mxGeometry relative="1" as="geometry" />
        </mxCell>
        <mxCell id="l2CdwO93gyP9gQ8bODWF-5" value="char data;" style="whiteSpace=wrap;html=1;" vertex="1" parent="1">
          <mxGeometry x="340" y="160" width="120" height="40" as="geometry" />
        </mxCell>
        <mxCell id="l2CdwO93gyP9gQ8bODWF-6" value="{" style="text;html=1;align=center;verticalAlign=middle;resizable=0;points=[];autosize=1;strokeColor=none;fillColor=none;" vertex="1" parent="1">
          <mxGeometry x="375" y="120" width="30" height="30" as="geometry" />
        </mxCell>
        <mxCell id="l2CdwO93gyP9gQ8bODWF-7" value="" style="edgeStyle=orthogonalEdgeStyle;rounded=0;orthogonalLoop=1;jettySize=auto;html=1;" edge="1" parent="1" source="l2CdwO93gyP9gQ8bODWF-8" target="l2CdwO93gyP9gQ8bODWF-10">
          <mxGeometry relative="1" as="geometry" />
        </mxCell>
        <mxCell id="l2CdwO93gyP9gQ8bODWF-8" value="Node* next_ptr;" style="whiteSpace=wrap;html=1;" vertex="1" parent="1">
          <mxGeometry x="340" y="220" width="120" height="40" as="geometry" />
        </mxCell>
        <mxCell id="l2CdwO93gyP9gQ8bODWF-9" value="" style="edgeStyle=orthogonalEdgeStyle;rounded=0;orthogonalLoop=1;jettySize=auto;html=1;" edge="1" parent="1" source="l2CdwO93gyP9gQ8bODWF-10" target="l2CdwO93gyP9gQ8bODWF-12">
          <mxGeometry relative="1" as="geometry" />
        </mxCell>
        <mxCell id="l2CdwO93gyP9gQ8bODWF-10" value="void init_node(char Data)" style="shape=process;whiteSpace=wrap;html=1;backgroundOutline=1;size=0.034482758620689655;" vertex="1" parent="1">
          <mxGeometry x="312.5" y="280" width="175" height="40" as="geometry" />
        </mxCell>
        <mxCell id="l2CdwO93gyP9gQ8bODWF-11" value="" style="edgeStyle=orthogonalEdgeStyle;rounded=0;orthogonalLoop=1;jettySize=auto;html=1;" edge="1" parent="1" source="l2CdwO93gyP9gQ8bODWF-12" target="l2CdwO93gyP9gQ8bODWF-15">
          <mxGeometry relative="1" as="geometry" />
        </mxCell>
        <mxCell id="l2CdwO93gyP9gQ8bODWF-12" value="data = Data;" style="whiteSpace=wrap;html=1;" vertex="1" parent="1">
          <mxGeometry x="340" y="360" width="120" height="40" as="geometry" />
        </mxCell>
        <mxCell id="l2CdwO93gyP9gQ8bODWF-13" value="{" style="text;html=1;align=center;verticalAlign=middle;resizable=0;points=[];autosize=1;strokeColor=none;fillColor=none;" vertex="1" parent="1">
          <mxGeometry x="375" y="320" width="30" height="30" as="geometry" />
        </mxCell>
        <mxCell id="l2CdwO93gyP9gQ8bODWF-14" style="edgeStyle=orthogonalEdgeStyle;rounded=0;orthogonalLoop=1;jettySize=auto;html=1;entryX=0.5;entryY=0;entryDx=0;entryDy=0;" edge="1" parent="1" source="l2CdwO93gyP9gQ8bODWF-15" target="l2CdwO93gyP9gQ8bODWF-16">
          <mxGeometry relative="1" as="geometry" />
        </mxCell>
        <mxCell id="l2CdwO93gyP9gQ8bODWF-15" value="next_ptr = nullptr;" style="whiteSpace=wrap;html=1;" vertex="1" parent="1">
          <mxGeometry x="340" y="420" width="120" height="40" as="geometry" />
        </mxCell>
        <mxCell id="l2CdwO93gyP9gQ8bODWF-16" value="return;" style="ellipse;whiteSpace=wrap;html=1;" vertex="1" parent="1">
          <mxGeometry x="340" y="480" width="120" height="40" as="geometry" />
        </mxCell>
        <mxCell id="l2CdwO93gyP9gQ8bODWF-17" value="}" style="text;html=1;align=center;verticalAlign=middle;resizable=0;points=[];autosize=1;strokeColor=none;fillColor=none;" vertex="1" parent="1">
          <mxGeometry x="399" y="520" width="30" height="30" as="geometry" />
        </mxCell>
        <mxCell id="l2CdwO93gyP9gQ8bODWF-18" value="};" style="text;html=1;align=center;verticalAlign=middle;resizable=0;points=[];autosize=1;strokeColor=none;fillColor=none;" vertex="1" parent="1">
          <mxGeometry x="385" y="550" width="30" height="30" as="geometry" />
        </mxCell>
      </root>
    </mxGraphModel>
  </diagram>
  <diagram id="ME8vNRlTWhmPuPNKkX5A" name="Queue">
    <mxGraphModel dx="2580" dy="1434" grid="1" gridSize="10" guides="1" tooltips="1" connect="1" arrows="1" fold="1" page="1" pageScale="1" pageWidth="827" pageHeight="1169" math="0" shadow="0">
      <root>
        <mxCell id="0" />
        <mxCell id="1" parent="0" />
        <mxCell id="xTwGAfmzmbKCVCO-NN5s-4" value="" style="edgeStyle=orthogonalEdgeStyle;rounded=0;orthogonalLoop=1;jettySize=auto;html=1;" edge="1" parent="1" source="xTwGAfmzmbKCVCO-NN5s-2" target="xTwGAfmzmbKCVCO-NN5s-3">
          <mxGeometry relative="1" as="geometry" />
        </mxCell>
        <mxCell id="xTwGAfmzmbKCVCO-NN5s-2" value="struct Queue" style="shape=process;whiteSpace=wrap;html=1;backgroundOutline=1;" vertex="1" parent="1">
          <mxGeometry x="40" y="80" width="120" height="40" as="geometry" />
        </mxCell>
        <mxCell id="xTwGAfmzmbKCVCO-NN5s-7" value="" style="edgeStyle=orthogonalEdgeStyle;rounded=0;orthogonalLoop=1;jettySize=auto;html=1;" edge="1" parent="1" source="xTwGAfmzmbKCVCO-NN5s-3" target="xTwGAfmzmbKCVCO-NN5s-6">
          <mxGeometry relative="1" as="geometry" />
        </mxCell>
        <mxCell id="xTwGAfmzmbKCVCO-NN5s-3" value="Node* head = nullptr;" style="whiteSpace=wrap;html=1;" vertex="1" parent="1">
          <mxGeometry x="40" y="160" width="120" height="40" as="geometry" />
        </mxCell>
        <mxCell id="xTwGAfmzmbKCVCO-NN5s-5" value="{" style="text;html=1;align=center;verticalAlign=middle;resizable=0;points=[];autosize=1;strokeColor=none;fillColor=none;" vertex="1" parent="1">
          <mxGeometry x="70" y="120" width="30" height="30" as="geometry" />
        </mxCell>
        <mxCell id="xTwGAfmzmbKCVCO-NN5s-9" value="" style="edgeStyle=orthogonalEdgeStyle;rounded=0;orthogonalLoop=1;jettySize=auto;html=1;" edge="1" parent="1" source="xTwGAfmzmbKCVCO-NN5s-6" target="xTwGAfmzmbKCVCO-NN5s-8">
          <mxGeometry relative="1" as="geometry" />
        </mxCell>
        <mxCell id="xTwGAfmzmbKCVCO-NN5s-6" value="Node* tail = nullptr;" style="whiteSpace=wrap;html=1;" vertex="1" parent="1">
          <mxGeometry x="40" y="220" width="120" height="40" as="geometry" />
        </mxCell>
        <mxCell id="xTwGAfmzmbKCVCO-NN5s-11" value="" style="edgeStyle=orthogonalEdgeStyle;rounded=0;orthogonalLoop=1;jettySize=auto;html=1;" edge="1" parent="1" source="xTwGAfmzmbKCVCO-NN5s-8" target="xTwGAfmzmbKCVCO-NN5s-10">
          <mxGeometry relative="1" as="geometry" />
        </mxCell>
        <mxCell id="xTwGAfmzmbKCVCO-NN5s-8" value="int size = 0;" style="whiteSpace=wrap;html=1;" vertex="1" parent="1">
          <mxGeometry x="40" y="280" width="120" height="40" as="geometry" />
        </mxCell>
        <mxCell id="xTwGAfmzmbKCVCO-NN5s-10" value="a" style="ellipse;whiteSpace=wrap;html=1;" vertex="1" parent="1">
          <mxGeometry x="80" y="360" width="40" height="40" as="geometry" />
        </mxCell>
        <mxCell id="xTwGAfmzmbKCVCO-NN5s-14" value="" style="edgeStyle=orthogonalEdgeStyle;rounded=0;orthogonalLoop=1;jettySize=auto;html=1;" edge="1" parent="1" source="xTwGAfmzmbKCVCO-NN5s-12" target="xTwGAfmzmbKCVCO-NN5s-13">
          <mxGeometry relative="1" as="geometry" />
        </mxCell>
        <mxCell id="xTwGAfmzmbKCVCO-NN5s-12" value="a" style="ellipse;whiteSpace=wrap;html=1;" vertex="1" parent="1">
          <mxGeometry x="620" y="80" width="40" height="40" as="geometry" />
        </mxCell>
        <mxCell id="xTwGAfmzmbKCVCO-NN5s-16" value="" style="edgeStyle=orthogonalEdgeStyle;rounded=0;orthogonalLoop=1;jettySize=auto;html=1;" edge="1" parent="1" source="xTwGAfmzmbKCVCO-NN5s-13" target="xTwGAfmzmbKCVCO-NN5s-15">
          <mxGeometry relative="1" as="geometry" />
        </mxCell>
        <mxCell id="xTwGAfmzmbKCVCO-NN5s-13" value="void push(char data)" style="shape=process;whiteSpace=wrap;html=1;backgroundOutline=1;" vertex="1" parent="1">
          <mxGeometry x="560" y="140" width="160" height="40" as="geometry" />
        </mxCell>
        <mxCell id="xTwGAfmzmbKCVCO-NN5s-19" value="" style="edgeStyle=orthogonalEdgeStyle;rounded=0;orthogonalLoop=1;jettySize=auto;html=1;" edge="1" parent="1" source="xTwGAfmzmbKCVCO-NN5s-15" target="xTwGAfmzmbKCVCO-NN5s-18">
          <mxGeometry relative="1" as="geometry" />
        </mxCell>
        <mxCell id="xTwGAfmzmbKCVCO-NN5s-15" value="Node* node = new Node;" style="whiteSpace=wrap;html=1;" vertex="1" parent="1">
          <mxGeometry x="560" y="220" width="160" height="40" as="geometry" />
        </mxCell>
        <mxCell id="xTwGAfmzmbKCVCO-NN5s-17" value="{" style="text;html=1;align=center;verticalAlign=middle;resizable=0;points=[];autosize=1;strokeColor=none;fillColor=none;" vertex="1" parent="1">
          <mxGeometry x="610" y="180" width="30" height="30" as="geometry" />
        </mxCell>
        <mxCell id="xTwGAfmzmbKCVCO-NN5s-21" value="" style="edgeStyle=orthogonalEdgeStyle;rounded=0;orthogonalLoop=1;jettySize=auto;html=1;" edge="1" parent="1" source="xTwGAfmzmbKCVCO-NN5s-18" target="xTwGAfmzmbKCVCO-NN5s-20">
          <mxGeometry relative="1" as="geometry" />
        </mxCell>
        <mxCell id="xTwGAfmzmbKCVCO-NN5s-18" value="node-&amp;gt;init_node(data);" style="whiteSpace=wrap;html=1;" vertex="1" parent="1">
          <mxGeometry x="560" y="280" width="160" height="40" as="geometry" />
        </mxCell>
        <mxCell id="xTwGAfmzmbKCVCO-NN5s-23" value="" style="edgeStyle=orthogonalEdgeStyle;rounded=0;orthogonalLoop=1;jettySize=auto;html=1;" edge="1" parent="1" source="xTwGAfmzmbKCVCO-NN5s-20" target="xTwGAfmzmbKCVCO-NN5s-22">
          <mxGeometry relative="1" as="geometry" />
        </mxCell>
        <mxCell id="xTwGAfmzmbKCVCO-NN5s-20" value="size++;" style="whiteSpace=wrap;html=1;" vertex="1" parent="1">
          <mxGeometry x="590" y="340" width="100" height="40" as="geometry" />
        </mxCell>
        <mxCell id="xTwGAfmzmbKCVCO-NN5s-27" value="" style="edgeStyle=orthogonalEdgeStyle;rounded=0;orthogonalLoop=1;jettySize=auto;html=1;" edge="1" parent="1" source="xTwGAfmzmbKCVCO-NN5s-22" target="xTwGAfmzmbKCVCO-NN5s-26">
          <mxGeometry relative="1" as="geometry" />
        </mxCell>
        <mxCell id="AT-5X-0NSNNEaCESJetW-4" style="edgeStyle=orthogonalEdgeStyle;rounded=0;orthogonalLoop=1;jettySize=auto;html=1;" edge="1" parent="1" source="xTwGAfmzmbKCVCO-NN5s-22">
          <mxGeometry relative="1" as="geometry">
            <mxPoint x="640" y="590" as="targetPoint" />
            <Array as="points">
              <mxPoint x="750" y="420" />
              <mxPoint x="750" y="590" />
            </Array>
          </mxGeometry>
        </mxCell>
        <mxCell id="xTwGAfmzmbKCVCO-NN5s-22" value="if (tail == nullptr)" style="rhombus;whiteSpace=wrap;html=1;" vertex="1" parent="1">
          <mxGeometry x="560" y="400" width="160" height="40" as="geometry" />
        </mxCell>
        <mxCell id="AT-5X-0NSNNEaCESJetW-2" style="edgeStyle=orthogonalEdgeStyle;rounded=0;orthogonalLoop=1;jettySize=auto;html=1;entryX=0.5;entryY=0;entryDx=0;entryDy=0;" edge="1" parent="1" source="xTwGAfmzmbKCVCO-NN5s-26" target="AT-5X-0NSNNEaCESJetW-1">
          <mxGeometry relative="1" as="geometry" />
        </mxCell>
        <mxCell id="xTwGAfmzmbKCVCO-NN5s-26" value="head = tail = node;" style="whiteSpace=wrap;html=1;" vertex="1" parent="1">
          <mxGeometry x="420" y="460" width="120" height="40" as="geometry" />
        </mxCell>
        <mxCell id="xTwGAfmzmbKCVCO-NN5s-28" value="1" style="text;html=1;align=center;verticalAlign=middle;resizable=0;points=[];autosize=1;strokeColor=none;fillColor=none;" vertex="1" parent="1">
          <mxGeometry x="480" y="390" width="30" height="30" as="geometry" />
        </mxCell>
        <mxCell id="AT-5X-0NSNNEaCESJetW-3" style="edgeStyle=orthogonalEdgeStyle;rounded=0;orthogonalLoop=1;jettySize=auto;html=1;exitX=0.5;exitY=1;exitDx=0;exitDy=0;" edge="1" parent="1" source="AT-5X-0NSNNEaCESJetW-1">
          <mxGeometry relative="1" as="geometry">
            <mxPoint x="640" y="590" as="targetPoint" />
            <Array as="points">
              <mxPoint x="480" y="590" />
              <mxPoint x="640" y="590" />
            </Array>
          </mxGeometry>
        </mxCell>
        <mxCell id="AT-5X-0NSNNEaCESJetW-1" value="return;" style="ellipse;whiteSpace=wrap;html=1;" vertex="1" parent="1">
          <mxGeometry x="420" y="520" width="120" height="40" as="geometry" />
        </mxCell>
        <mxCell id="AT-5X-0NSNNEaCESJetW-5" value="{" style="text;html=1;align=center;verticalAlign=middle;resizable=0;points=[];autosize=1;strokeColor=none;fillColor=none;" vertex="1" parent="1">
          <mxGeometry x="450" y="430" width="30" height="30" as="geometry" />
        </mxCell>
        <mxCell id="AT-5X-0NSNNEaCESJetW-6" value="}" style="text;html=1;align=center;verticalAlign=middle;resizable=0;points=[];autosize=1;strokeColor=none;fillColor=none;" vertex="1" parent="1">
          <mxGeometry x="480" y="560" width="30" height="30" as="geometry" />
        </mxCell>
        <mxCell id="AT-5X-0NSNNEaCESJetW-7" value="0" style="text;html=1;align=center;verticalAlign=middle;resizable=0;points=[];autosize=1;strokeColor=none;fillColor=none;" vertex="1" parent="1">
          <mxGeometry x="720" y="390" width="30" height="30" as="geometry" />
        </mxCell>
        <mxCell id="AT-5X-0NSNNEaCESJetW-8" value="" style="endArrow=classic;html=1;rounded=0;" edge="1" parent="1" target="AT-5X-0NSNNEaCESJetW-9">
          <mxGeometry width="50" height="50" relative="1" as="geometry">
            <mxPoint x="640" y="590" as="sourcePoint" />
            <mxPoint x="640" y="620" as="targetPoint" />
          </mxGeometry>
        </mxCell>
        <mxCell id="AT-5X-0NSNNEaCESJetW-11" value="" style="edgeStyle=orthogonalEdgeStyle;rounded=0;orthogonalLoop=1;jettySize=auto;html=1;" edge="1" parent="1" source="AT-5X-0NSNNEaCESJetW-9" target="AT-5X-0NSNNEaCESJetW-10">
          <mxGeometry relative="1" as="geometry" />
        </mxCell>
        <mxCell id="AT-5X-0NSNNEaCESJetW-9" value="tail-&amp;gt;next_ptr = node;" style="rounded=0;whiteSpace=wrap;html=1;" vertex="1" parent="1">
          <mxGeometry x="580" y="620" width="120" height="40" as="geometry" />
        </mxCell>
        <mxCell id="AT-5X-0NSNNEaCESJetW-13" style="edgeStyle=orthogonalEdgeStyle;rounded=0;orthogonalLoop=1;jettySize=auto;html=1;entryX=0.5;entryY=0;entryDx=0;entryDy=0;" edge="1" parent="1" source="AT-5X-0NSNNEaCESJetW-10" target="AT-5X-0NSNNEaCESJetW-12">
          <mxGeometry relative="1" as="geometry" />
        </mxCell>
        <mxCell id="AT-5X-0NSNNEaCESJetW-10" value="tail = node;" style="rounded=0;whiteSpace=wrap;html=1;" vertex="1" parent="1">
          <mxGeometry x="580" y="680" width="120" height="40" as="geometry" />
        </mxCell>
        <mxCell id="AT-5X-0NSNNEaCESJetW-16" style="edgeStyle=orthogonalEdgeStyle;rounded=0;orthogonalLoop=1;jettySize=auto;html=1;entryX=0.5;entryY=0;entryDx=0;entryDy=0;" edge="1" parent="1" source="AT-5X-0NSNNEaCESJetW-12" target="AT-5X-0NSNNEaCESJetW-15">
          <mxGeometry relative="1" as="geometry" />
        </mxCell>
        <mxCell id="AT-5X-0NSNNEaCESJetW-12" value="return;" style="ellipse;whiteSpace=wrap;html=1;" vertex="1" parent="1">
          <mxGeometry x="580" y="740" width="120" height="40" as="geometry" />
        </mxCell>
        <mxCell id="AT-5X-0NSNNEaCESJetW-14" value="}" style="text;html=1;align=center;verticalAlign=middle;resizable=0;points=[];autosize=1;strokeColor=none;fillColor=none;" vertex="1" parent="1">
          <mxGeometry x="640" y="780" width="30" height="30" as="geometry" />
        </mxCell>
        <mxCell id="AT-5X-0NSNNEaCESJetW-15" value="b" style="ellipse;whiteSpace=wrap;html=1;" vertex="1" parent="1">
          <mxGeometry x="620" y="820" width="40" height="40" as="geometry" />
        </mxCell>
        <mxCell id="AT-5X-0NSNNEaCESJetW-20" value="" style="edgeStyle=orthogonalEdgeStyle;rounded=0;orthogonalLoop=1;jettySize=auto;html=1;" edge="1" parent="1" source="AT-5X-0NSNNEaCESJetW-17" target="AT-5X-0NSNNEaCESJetW-19">
          <mxGeometry relative="1" as="geometry" />
        </mxCell>
        <mxCell id="AT-5X-0NSNNEaCESJetW-17" value="b" style="ellipse;whiteSpace=wrap;html=1;" vertex="1" parent="1">
          <mxGeometry x="1180" y="80" width="40" height="40" as="geometry" />
        </mxCell>
        <mxCell id="AT-5X-0NSNNEaCESJetW-22" value="" style="edgeStyle=orthogonalEdgeStyle;rounded=0;orthogonalLoop=1;jettySize=auto;html=1;" edge="1" parent="1" source="AT-5X-0NSNNEaCESJetW-19">
          <mxGeometry relative="1" as="geometry">
            <mxPoint x="1201" y="220" as="targetPoint" />
            <Array as="points">
              <mxPoint x="1200" y="220" />
            </Array>
          </mxGeometry>
        </mxCell>
        <mxCell id="AT-5X-0NSNNEaCESJetW-19" value="void pop()" style="shape=process;whiteSpace=wrap;html=1;backgroundOutline=1;" vertex="1" parent="1">
          <mxGeometry x="1140" y="140" width="120" height="40" as="geometry" />
        </mxCell>
        <mxCell id="AT-5X-0NSNNEaCESJetW-23" value="{" style="text;html=1;align=center;verticalAlign=middle;resizable=0;points=[];autosize=1;strokeColor=none;fillColor=none;" vertex="1" parent="1">
          <mxGeometry x="1175" y="180" width="30" height="30" as="geometry" />
        </mxCell>
        <mxCell id="AT-5X-0NSNNEaCESJetW-29" style="edgeStyle=orthogonalEdgeStyle;rounded=0;orthogonalLoop=1;jettySize=auto;html=1;entryX=0.5;entryY=0;entryDx=0;entryDy=0;exitX=0;exitY=0.5;exitDx=0;exitDy=0;" edge="1" parent="1" source="AT-5X-0NSNNEaCESJetW-26" target="AT-5X-0NSNNEaCESJetW-30">
          <mxGeometry relative="1" as="geometry">
            <mxPoint x="1080" y="280" as="targetPoint" />
          </mxGeometry>
        </mxCell>
        <mxCell id="AT-5X-0NSNNEaCESJetW-32" style="edgeStyle=orthogonalEdgeStyle;rounded=0;orthogonalLoop=1;jettySize=auto;html=1;" edge="1" parent="1" source="AT-5X-0NSNNEaCESJetW-26">
          <mxGeometry relative="1" as="geometry">
            <mxPoint x="1200" y="340" as="targetPoint" />
            <Array as="points">
              <mxPoint x="1310" y="240" />
              <mxPoint x="1310" y="340" />
            </Array>
          </mxGeometry>
        </mxCell>
        <mxCell id="AT-5X-0NSNNEaCESJetW-26" value="if (tail == nullptr)" style="rhombus;whiteSpace=wrap;html=1;" vertex="1" parent="1">
          <mxGeometry x="1120" y="220" width="160" height="40" as="geometry" />
        </mxCell>
        <mxCell id="AT-5X-0NSNNEaCESJetW-27" value="1" style="text;html=1;align=center;verticalAlign=middle;resizable=0;points=[];autosize=1;strokeColor=none;fillColor=none;" vertex="1" parent="1">
          <mxGeometry x="1080" y="210" width="30" height="30" as="geometry" />
        </mxCell>
        <mxCell id="AT-5X-0NSNNEaCESJetW-28" value="0" style="text;html=1;align=center;verticalAlign=middle;resizable=0;points=[];autosize=1;strokeColor=none;fillColor=none;" vertex="1" parent="1">
          <mxGeometry x="1290" y="210" width="30" height="30" as="geometry" />
        </mxCell>
        <mxCell id="AT-5X-0NSNNEaCESJetW-31" style="edgeStyle=orthogonalEdgeStyle;rounded=0;orthogonalLoop=1;jettySize=auto;html=1;exitX=0.5;exitY=1;exitDx=0;exitDy=0;" edge="1" parent="1" source="AT-5X-0NSNNEaCESJetW-30">
          <mxGeometry relative="1" as="geometry">
            <mxPoint x="1200" y="340" as="targetPoint" />
            <Array as="points">
              <mxPoint x="1080" y="340" />
            </Array>
          </mxGeometry>
        </mxCell>
        <mxCell id="AT-5X-0NSNNEaCESJetW-30" value="return;" style="ellipse;whiteSpace=wrap;html=1;" vertex="1" parent="1">
          <mxGeometry x="1020" y="280" width="120" height="40" as="geometry" />
        </mxCell>
        <mxCell id="AT-5X-0NSNNEaCESJetW-33" style="edgeStyle=orthogonalEdgeStyle;rounded=0;orthogonalLoop=1;jettySize=auto;html=1;entryX=0.5;entryY=0;entryDx=0;entryDy=0;exitX=0;exitY=0.5;exitDx=0;exitDy=0;" edge="1" parent="1" source="AT-5X-0NSNNEaCESJetW-35" target="AT-5X-0NSNNEaCESJetW-42">
          <mxGeometry relative="1" as="geometry">
            <mxPoint x="1080" y="420" as="targetPoint" />
          </mxGeometry>
        </mxCell>
        <mxCell id="AT-5X-0NSNNEaCESJetW-34" style="edgeStyle=orthogonalEdgeStyle;rounded=0;orthogonalLoop=1;jettySize=auto;html=1;" edge="1" parent="1" source="AT-5X-0NSNNEaCESJetW-35">
          <mxGeometry relative="1" as="geometry">
            <mxPoint x="1200" y="670" as="targetPoint" />
            <Array as="points">
              <mxPoint x="1310" y="380" />
              <mxPoint x="1310" y="670" />
            </Array>
          </mxGeometry>
        </mxCell>
        <mxCell id="AT-5X-0NSNNEaCESJetW-35" value="if (head == tail)" style="rhombus;whiteSpace=wrap;html=1;" vertex="1" parent="1">
          <mxGeometry x="1120" y="360" width="160" height="40" as="geometry" />
        </mxCell>
        <mxCell id="AT-5X-0NSNNEaCESJetW-36" value="1" style="text;html=1;align=center;verticalAlign=middle;resizable=0;points=[];autosize=1;strokeColor=none;fillColor=none;" vertex="1" parent="1">
          <mxGeometry x="1080" y="350" width="30" height="30" as="geometry" />
        </mxCell>
        <mxCell id="AT-5X-0NSNNEaCESJetW-37" value="0" style="text;html=1;align=center;verticalAlign=middle;resizable=0;points=[];autosize=1;strokeColor=none;fillColor=none;" vertex="1" parent="1">
          <mxGeometry x="1290" y="350" width="30" height="30" as="geometry" />
        </mxCell>
        <mxCell id="AT-5X-0NSNNEaCESJetW-40" value="" style="endArrow=classic;html=1;rounded=0;entryX=0.5;entryY=0;entryDx=0;entryDy=0;" edge="1" parent="1" target="AT-5X-0NSNNEaCESJetW-35">
          <mxGeometry width="50" height="50" relative="1" as="geometry">
            <mxPoint x="1200" y="340" as="sourcePoint" />
            <mxPoint x="1200" y="310" as="targetPoint" />
          </mxGeometry>
        </mxCell>
        <mxCell id="AT-5X-0NSNNEaCESJetW-41" value="{" style="text;html=1;align=center;verticalAlign=middle;resizable=0;points=[];autosize=1;strokeColor=none;fillColor=none;" vertex="1" parent="1">
          <mxGeometry x="1055" y="378" width="30" height="30" as="geometry" />
        </mxCell>
        <mxCell id="AT-5X-0NSNNEaCESJetW-44" value="" style="edgeStyle=orthogonalEdgeStyle;rounded=0;orthogonalLoop=1;jettySize=auto;html=1;" edge="1" parent="1" source="AT-5X-0NSNNEaCESJetW-42" target="AT-5X-0NSNNEaCESJetW-43">
          <mxGeometry relative="1" as="geometry" />
        </mxCell>
        <mxCell id="AT-5X-0NSNNEaCESJetW-42" value="delete head;" style="rounded=0;whiteSpace=wrap;html=1;" vertex="1" parent="1">
          <mxGeometry x="1020" y="420" width="120" height="40" as="geometry" />
        </mxCell>
        <mxCell id="AT-5X-0NSNNEaCESJetW-46" value="" style="edgeStyle=orthogonalEdgeStyle;rounded=0;orthogonalLoop=1;jettySize=auto;html=1;" edge="1" parent="1" source="AT-5X-0NSNNEaCESJetW-43" target="AT-5X-0NSNNEaCESJetW-45">
          <mxGeometry relative="1" as="geometry" />
        </mxCell>
        <mxCell id="AT-5X-0NSNNEaCESJetW-43" value="head = tail = nullptr;" style="rounded=0;whiteSpace=wrap;html=1;" vertex="1" parent="1">
          <mxGeometry x="1020" y="480" width="120" height="40" as="geometry" />
        </mxCell>
        <mxCell id="AT-5X-0NSNNEaCESJetW-48" style="edgeStyle=orthogonalEdgeStyle;rounded=0;orthogonalLoop=1;jettySize=auto;html=1;entryX=0.5;entryY=0;entryDx=0;entryDy=0;" edge="1" parent="1" source="AT-5X-0NSNNEaCESJetW-45" target="AT-5X-0NSNNEaCESJetW-47">
          <mxGeometry relative="1" as="geometry" />
        </mxCell>
        <mxCell id="AT-5X-0NSNNEaCESJetW-45" value="size--;" style="rounded=0;whiteSpace=wrap;html=1;" vertex="1" parent="1">
          <mxGeometry x="1020" y="540" width="120" height="40" as="geometry" />
        </mxCell>
        <mxCell id="AT-5X-0NSNNEaCESJetW-49" style="edgeStyle=orthogonalEdgeStyle;rounded=0;orthogonalLoop=1;jettySize=auto;html=1;exitX=0.5;exitY=1;exitDx=0;exitDy=0;" edge="1" parent="1" source="AT-5X-0NSNNEaCESJetW-47">
          <mxGeometry relative="1" as="geometry">
            <mxPoint x="1200" y="670" as="targetPoint" />
            <Array as="points">
              <mxPoint x="1080" y="670" />
              <mxPoint x="1200" y="670" />
            </Array>
          </mxGeometry>
        </mxCell>
        <mxCell id="AT-5X-0NSNNEaCESJetW-47" value="return;" style="ellipse;whiteSpace=wrap;html=1;" vertex="1" parent="1">
          <mxGeometry x="1020" y="600" width="120" height="40" as="geometry" />
        </mxCell>
        <mxCell id="AT-5X-0NSNNEaCESJetW-50" value="}" style="text;html=1;align=center;verticalAlign=middle;resizable=0;points=[];autosize=1;strokeColor=none;fillColor=none;" vertex="1" parent="1">
          <mxGeometry x="1080" y="640" width="30" height="30" as="geometry" />
        </mxCell>
        <mxCell id="AT-5X-0NSNNEaCESJetW-51" value="" style="endArrow=classic;html=1;rounded=0;entryX=0.5;entryY=0;entryDx=0;entryDy=0;" edge="1" parent="1" target="AT-5X-0NSNNEaCESJetW-52">
          <mxGeometry width="50" height="50" relative="1" as="geometry">
            <mxPoint x="1200" y="670" as="sourcePoint" />
            <mxPoint x="1200" y="700" as="targetPoint" />
          </mxGeometry>
        </mxCell>
        <mxCell id="AT-5X-0NSNNEaCESJetW-54" value="" style="edgeStyle=orthogonalEdgeStyle;rounded=0;orthogonalLoop=1;jettySize=auto;html=1;" edge="1" parent="1" source="AT-5X-0NSNNEaCESJetW-52" target="AT-5X-0NSNNEaCESJetW-53">
          <mxGeometry relative="1" as="geometry" />
        </mxCell>
        <mxCell id="AT-5X-0NSNNEaCESJetW-52" value="Node* node = head;" style="rounded=0;whiteSpace=wrap;html=1;" vertex="1" parent="1">
          <mxGeometry x="1140" y="700" width="120" height="40" as="geometry" />
        </mxCell>
        <mxCell id="AT-5X-0NSNNEaCESJetW-56" value="" style="edgeStyle=orthogonalEdgeStyle;rounded=0;orthogonalLoop=1;jettySize=auto;html=1;" edge="1" parent="1" source="AT-5X-0NSNNEaCESJetW-53" target="AT-5X-0NSNNEaCESJetW-55">
          <mxGeometry relative="1" as="geometry" />
        </mxCell>
        <mxCell id="AT-5X-0NSNNEaCESJetW-53" value="head = head-&amp;gt;next_ptr;" style="rounded=0;whiteSpace=wrap;html=1;" vertex="1" parent="1">
          <mxGeometry x="1120" y="760" width="160" height="40" as="geometry" />
        </mxCell>
        <mxCell id="AT-5X-0NSNNEaCESJetW-58" value="" style="edgeStyle=orthogonalEdgeStyle;rounded=0;orthogonalLoop=1;jettySize=auto;html=1;" edge="1" parent="1" source="AT-5X-0NSNNEaCESJetW-55" target="AT-5X-0NSNNEaCESJetW-57">
          <mxGeometry relative="1" as="geometry" />
        </mxCell>
        <mxCell id="AT-5X-0NSNNEaCESJetW-55" value="delete node;" style="rounded=0;whiteSpace=wrap;html=1;" vertex="1" parent="1">
          <mxGeometry x="1120" y="820" width="160" height="40" as="geometry" />
        </mxCell>
        <mxCell id="AT-5X-0NSNNEaCESJetW-60" style="edgeStyle=orthogonalEdgeStyle;rounded=0;orthogonalLoop=1;jettySize=auto;html=1;entryX=0.5;entryY=0;entryDx=0;entryDy=0;" edge="1" parent="1" source="AT-5X-0NSNNEaCESJetW-57" target="AT-5X-0NSNNEaCESJetW-59">
          <mxGeometry relative="1" as="geometry" />
        </mxCell>
        <mxCell id="AT-5X-0NSNNEaCESJetW-57" value="size--;" style="rounded=0;whiteSpace=wrap;html=1;" vertex="1" parent="1">
          <mxGeometry x="1120" y="880" width="160" height="40" as="geometry" />
        </mxCell>
        <mxCell id="AT-5X-0NSNNEaCESJetW-64" style="edgeStyle=orthogonalEdgeStyle;rounded=0;orthogonalLoop=1;jettySize=auto;html=1;entryX=0.5;entryY=0;entryDx=0;entryDy=0;" edge="1" parent="1" source="AT-5X-0NSNNEaCESJetW-59" target="AT-5X-0NSNNEaCESJetW-63">
          <mxGeometry relative="1" as="geometry" />
        </mxCell>
        <mxCell id="AT-5X-0NSNNEaCESJetW-59" value="return;" style="ellipse;whiteSpace=wrap;html=1;" vertex="1" parent="1">
          <mxGeometry x="1140" y="940" width="120" height="40" as="geometry" />
        </mxCell>
        <mxCell id="AT-5X-0NSNNEaCESJetW-61" value="}" style="text;html=1;align=center;verticalAlign=middle;resizable=0;points=[];autosize=1;strokeColor=none;fillColor=none;" vertex="1" parent="1">
          <mxGeometry x="1205" y="980" width="30" height="30" as="geometry" />
        </mxCell>
        <mxCell id="AT-5X-0NSNNEaCESJetW-63" value="c" style="ellipse;whiteSpace=wrap;html=1;" vertex="1" parent="1">
          <mxGeometry x="1180" y="1010" width="40" height="40" as="geometry" />
        </mxCell>
        <mxCell id="AT-5X-0NSNNEaCESJetW-88" style="edgeStyle=orthogonalEdgeStyle;rounded=0;orthogonalLoop=1;jettySize=auto;html=1;entryX=0.5;entryY=0;entryDx=0;entryDy=0;" edge="1" parent="1" source="AT-5X-0NSNNEaCESJetW-65" target="AT-5X-0NSNNEaCESJetW-72">
          <mxGeometry relative="1" as="geometry" />
        </mxCell>
        <mxCell id="AT-5X-0NSNNEaCESJetW-65" value="c" style="ellipse;whiteSpace=wrap;html=1;" vertex="1" parent="1">
          <mxGeometry x="1789" y="80" width="40" height="40" as="geometry" />
        </mxCell>
        <mxCell id="AT-5X-0NSNNEaCESJetW-66" style="edgeStyle=orthogonalEdgeStyle;rounded=0;orthogonalLoop=1;jettySize=auto;html=1;" edge="1" parent="1" source="AT-5X-0NSNNEaCESJetW-68" target="AT-5X-0NSNNEaCESJetW-89">
          <mxGeometry relative="1" as="geometry">
            <mxPoint x="1809" y="600" as="targetPoint" />
            <Array as="points">
              <mxPoint x="1949" y="260" />
              <mxPoint x="1949" y="580" />
              <mxPoint x="1809" y="580" />
            </Array>
          </mxGeometry>
        </mxCell>
        <mxCell id="AT-5X-0NSNNEaCESJetW-67" style="edgeStyle=orthogonalEdgeStyle;rounded=0;orthogonalLoop=1;jettySize=auto;html=1;entryX=0.5;entryY=0;entryDx=0;entryDy=0;" edge="1" parent="1" source="AT-5X-0NSNNEaCESJetW-68" target="AT-5X-0NSNNEaCESJetW-79">
          <mxGeometry relative="1" as="geometry" />
        </mxCell>
        <mxCell id="AT-5X-0NSNNEaCESJetW-68" value="while (head != nullptr)" style="rhombus;whiteSpace=wrap;html=1;" vertex="1" parent="1">
          <mxGeometry x="1704" y="240" width="210" height="40" as="geometry" />
        </mxCell>
        <mxCell id="AT-5X-0NSNNEaCESJetW-69" value="1" style="text;html=1;align=center;verticalAlign=middle;resizable=0;points=[];autosize=1;strokeColor=none;fillColor=none;" vertex="1" parent="1">
          <mxGeometry x="1809" y="290" width="30" height="30" as="geometry" />
        </mxCell>
        <mxCell id="AT-5X-0NSNNEaCESJetW-70" value="0" style="text;html=1;align=center;verticalAlign=middle;resizable=0;points=[];autosize=1;strokeColor=none;fillColor=none;" vertex="1" parent="1">
          <mxGeometry x="1929" y="230" width="30" height="30" as="geometry" />
        </mxCell>
        <mxCell id="AT-5X-0NSNNEaCESJetW-71" style="edgeStyle=orthogonalEdgeStyle;rounded=0;orthogonalLoop=1;jettySize=auto;html=1;entryX=0.5;entryY=0;entryDx=0;entryDy=0;" edge="1" parent="1" source="AT-5X-0NSNNEaCESJetW-72" target="AT-5X-0NSNNEaCESJetW-68">
          <mxGeometry relative="1" as="geometry" />
        </mxCell>
        <mxCell id="AT-5X-0NSNNEaCESJetW-72" value="void clear()" style="shape=process;whiteSpace=wrap;html=1;backgroundOutline=1;" vertex="1" parent="1">
          <mxGeometry x="1749" y="140" width="120" height="40" as="geometry" />
        </mxCell>
        <mxCell id="AT-5X-0NSNNEaCESJetW-73" value="{" style="text;html=1;align=center;verticalAlign=middle;resizable=0;points=[];autosize=1;strokeColor=none;fillColor=none;" vertex="1" parent="1">
          <mxGeometry x="1779" y="180" width="30" height="30" as="geometry" />
        </mxCell>
        <mxCell id="AT-5X-0NSNNEaCESJetW-74" style="edgeStyle=orthogonalEdgeStyle;rounded=0;orthogonalLoop=1;jettySize=auto;html=1;entryX=0.5;entryY=0;entryDx=0;entryDy=0;" edge="1" parent="1" source="AT-5X-0NSNNEaCESJetW-75" target="AT-5X-0NSNNEaCESJetW-76">
          <mxGeometry relative="1" as="geometry" />
        </mxCell>
        <mxCell id="AT-5X-0NSNNEaCESJetW-75" value="return;" style="ellipse;whiteSpace=wrap;html=1;" vertex="1" parent="1">
          <mxGeometry x="1749" y="661.5" width="120" height="40" as="geometry" />
        </mxCell>
        <mxCell id="AT-5X-0NSNNEaCESJetW-76" value="d" style="ellipse;whiteSpace=wrap;html=1;" vertex="1" parent="1">
          <mxGeometry x="1789" y="741.5" width="40" height="37" as="geometry" />
        </mxCell>
        <mxCell id="AT-5X-0NSNNEaCESJetW-77" value="}" style="text;html=1;align=center;verticalAlign=middle;resizable=0;points=[];autosize=1;strokeColor=none;fillColor=none;" vertex="1" parent="1">
          <mxGeometry x="1809" y="701.5" width="30" height="30" as="geometry" />
        </mxCell>
        <mxCell id="AT-5X-0NSNNEaCESJetW-78" value="" style="edgeStyle=orthogonalEdgeStyle;rounded=0;orthogonalLoop=1;jettySize=auto;html=1;" edge="1" parent="1" source="AT-5X-0NSNNEaCESJetW-79" target="AT-5X-0NSNNEaCESJetW-81">
          <mxGeometry relative="1" as="geometry" />
        </mxCell>
        <mxCell id="AT-5X-0NSNNEaCESJetW-79" value="Node* node = head;" style="whiteSpace=wrap;html=1;" vertex="1" parent="1">
          <mxGeometry x="1739" y="320" width="140" height="40" as="geometry" />
        </mxCell>
        <mxCell id="AT-5X-0NSNNEaCESJetW-80" value="" style="edgeStyle=orthogonalEdgeStyle;rounded=0;orthogonalLoop=1;jettySize=auto;html=1;" edge="1" parent="1" source="AT-5X-0NSNNEaCESJetW-81" target="AT-5X-0NSNNEaCESJetW-83">
          <mxGeometry relative="1" as="geometry" />
        </mxCell>
        <mxCell id="AT-5X-0NSNNEaCESJetW-81" value="head = head-&amp;gt;next_ptr;" style="whiteSpace=wrap;html=1;" vertex="1" parent="1">
          <mxGeometry x="1739" y="380" width="140" height="40" as="geometry" />
        </mxCell>
        <mxCell id="AT-5X-0NSNNEaCESJetW-82" value="" style="edgeStyle=orthogonalEdgeStyle;rounded=0;orthogonalLoop=1;jettySize=auto;html=1;" edge="1" parent="1" source="AT-5X-0NSNNEaCESJetW-83" target="AT-5X-0NSNNEaCESJetW-85">
          <mxGeometry relative="1" as="geometry" />
        </mxCell>
        <mxCell id="AT-5X-0NSNNEaCESJetW-83" value="delete node;" style="whiteSpace=wrap;html=1;" vertex="1" parent="1">
          <mxGeometry x="1739" y="440" width="140" height="40" as="geometry" />
        </mxCell>
        <mxCell id="AT-5X-0NSNNEaCESJetW-84" style="edgeStyle=orthogonalEdgeStyle;rounded=0;orthogonalLoop=1;jettySize=auto;html=1;exitX=0.5;exitY=1;exitDx=0;exitDy=0;" edge="1" parent="1" source="AT-5X-0NSNNEaCESJetW-85">
          <mxGeometry relative="1" as="geometry">
            <mxPoint x="1809" y="220" as="targetPoint" />
            <Array as="points">
              <mxPoint x="1809" y="560" />
              <mxPoint x="1680" y="560" />
              <mxPoint x="1680" y="220" />
            </Array>
          </mxGeometry>
        </mxCell>
        <mxCell id="AT-5X-0NSNNEaCESJetW-85" value="size--;" style="whiteSpace=wrap;html=1;" vertex="1" parent="1">
          <mxGeometry x="1739" y="500" width="140" height="40" as="geometry" />
        </mxCell>
        <mxCell id="AT-5X-0NSNNEaCESJetW-86" value="{" style="text;html=1;align=center;verticalAlign=middle;resizable=0;points=[];autosize=1;strokeColor=none;fillColor=none;" vertex="1" parent="1">
          <mxGeometry x="1779" y="280" width="30" height="30" as="geometry" />
        </mxCell>
        <mxCell id="AT-5X-0NSNNEaCESJetW-87" value="}" style="text;html=1;align=center;verticalAlign=middle;resizable=0;points=[];autosize=1;strokeColor=none;fillColor=none;" vertex="1" parent="1">
          <mxGeometry x="1809" y="540" width="30" height="30" as="geometry" />
        </mxCell>
        <mxCell id="AT-5X-0NSNNEaCESJetW-90" style="edgeStyle=orthogonalEdgeStyle;rounded=0;orthogonalLoop=1;jettySize=auto;html=1;entryX=0.5;entryY=0;entryDx=0;entryDy=0;" edge="1" parent="1" source="AT-5X-0NSNNEaCESJetW-89" target="AT-5X-0NSNNEaCESJetW-75">
          <mxGeometry relative="1" as="geometry" />
        </mxCell>
        <mxCell id="AT-5X-0NSNNEaCESJetW-89" value="tail = nullptr;" style="rounded=0;whiteSpace=wrap;html=1;" vertex="1" parent="1">
          <mxGeometry x="1749" y="600" width="120" height="40" as="geometry" />
        </mxCell>
        <mxCell id="AT-5X-0NSNNEaCESJetW-91" value="" style="edgeStyle=orthogonalEdgeStyle;rounded=0;orthogonalLoop=1;jettySize=auto;html=1;" edge="1" parent="1" source="AT-5X-0NSNNEaCESJetW-92" target="AT-5X-0NSNNEaCESJetW-94">
          <mxGeometry relative="1" as="geometry" />
        </mxCell>
        <mxCell id="AT-5X-0NSNNEaCESJetW-92" value="d" style="ellipse;whiteSpace=wrap;html=1;" vertex="1" parent="1">
          <mxGeometry x="2250" y="80" width="40" height="37" as="geometry" />
        </mxCell>
        <mxCell id="AT-5X-0NSNNEaCESJetW-93" value="" style="edgeStyle=orthogonalEdgeStyle;rounded=0;orthogonalLoop=1;jettySize=auto;html=1;" edge="1" parent="1" source="AT-5X-0NSNNEaCESJetW-94" target="AT-5X-0NSNNEaCESJetW-96">
          <mxGeometry relative="1" as="geometry" />
        </mxCell>
        <mxCell id="AT-5X-0NSNNEaCESJetW-94" value="void show()" style="shape=process;whiteSpace=wrap;html=1;backgroundOutline=1;" vertex="1" parent="1">
          <mxGeometry x="2210" y="140" width="120" height="40" as="geometry" />
        </mxCell>
        <mxCell id="AT-5X-0NSNNEaCESJetW-95" value="" style="edgeStyle=orthogonalEdgeStyle;rounded=0;orthogonalLoop=1;jettySize=auto;html=1;" edge="1" parent="1" source="AT-5X-0NSNNEaCESJetW-96" target="AT-5X-0NSNNEaCESJetW-100">
          <mxGeometry relative="1" as="geometry" />
        </mxCell>
        <mxCell id="AT-5X-0NSNNEaCESJetW-96" value="cout &amp;lt;&amp;lt; &quot;Очередь: &quot;;" style="shape=parallelogram;perimeter=parallelogramPerimeter;whiteSpace=wrap;html=1;fixedSize=1;" vertex="1" parent="1">
          <mxGeometry x="2200" y="220" width="140" height="40" as="geometry" />
        </mxCell>
        <mxCell id="AT-5X-0NSNNEaCESJetW-97" value="{" style="text;html=1;align=center;verticalAlign=middle;resizable=0;points=[];autosize=1;strokeColor=none;fillColor=none;" vertex="1" parent="1">
          <mxGeometry x="2240" y="178" width="30" height="30" as="geometry" />
        </mxCell>
        <mxCell id="AT-5X-0NSNNEaCESJetW-98" value="" style="edgeStyle=orthogonalEdgeStyle;rounded=0;orthogonalLoop=1;jettySize=auto;html=1;" edge="1" parent="1" source="AT-5X-0NSNNEaCESJetW-100" target="AT-5X-0NSNNEaCESJetW-102">
          <mxGeometry relative="1" as="geometry" />
        </mxCell>
        <mxCell id="AT-5X-0NSNNEaCESJetW-99" value="" style="edgeStyle=orthogonalEdgeStyle;rounded=0;orthogonalLoop=1;jettySize=auto;html=1;" edge="1" parent="1" source="AT-5X-0NSNNEaCESJetW-100" target="AT-5X-0NSNNEaCESJetW-105">
          <mxGeometry relative="1" as="geometry" />
        </mxCell>
        <mxCell id="AT-5X-0NSNNEaCESJetW-100" value="for (Node* node = head; node != nullptr; node = node-&amp;gt;next_ptr)" style="shape=hexagon;perimeter=hexagonPerimeter2;whiteSpace=wrap;html=1;fixedSize=1;" vertex="1" parent="1">
          <mxGeometry x="2090" y="280" width="360" height="40" as="geometry" />
        </mxCell>
        <mxCell id="AT-5X-0NSNNEaCESJetW-101" style="edgeStyle=orthogonalEdgeStyle;rounded=0;orthogonalLoop=1;jettySize=auto;html=1;entryX=0;entryY=0.5;entryDx=0;entryDy=0;" edge="1" parent="1" source="AT-5X-0NSNNEaCESJetW-102" target="AT-5X-0NSNNEaCESJetW-100">
          <mxGeometry relative="1" as="geometry">
            <Array as="points">
              <mxPoint x="2270" y="420" />
              <mxPoint x="2070" y="420" />
              <mxPoint x="2070" y="300" />
            </Array>
          </mxGeometry>
        </mxCell>
        <mxCell id="AT-5X-0NSNNEaCESJetW-102" value="cout &amp;lt;&amp;lt; node-&amp;gt;data &amp;lt;&amp;lt; &#39; &#39;;" style="shape=parallelogram;perimeter=parallelogramPerimeter;whiteSpace=wrap;html=1;fixedSize=1;" vertex="1" parent="1">
          <mxGeometry x="2180" y="360" width="180" height="40" as="geometry" />
        </mxCell>
        <mxCell id="AT-5X-0NSNNEaCESJetW-103" value="1" style="text;html=1;align=center;verticalAlign=middle;resizable=0;points=[];autosize=1;strokeColor=none;fillColor=none;" vertex="1" parent="1">
          <mxGeometry x="2270" y="330" width="30" height="30" as="geometry" />
        </mxCell>
        <mxCell id="AT-5X-0NSNNEaCESJetW-104" style="edgeStyle=orthogonalEdgeStyle;rounded=0;orthogonalLoop=1;jettySize=auto;html=1;entryX=0.5;entryY=0;entryDx=0;entryDy=0;" edge="1" parent="1" source="AT-5X-0NSNNEaCESJetW-105" target="AT-5X-0NSNNEaCESJetW-107">
          <mxGeometry relative="1" as="geometry" />
        </mxCell>
        <mxCell id="AT-5X-0NSNNEaCESJetW-105" value="cout &amp;lt;&amp;lt; endl;" style="shape=parallelogram;perimeter=parallelogramPerimeter;whiteSpace=wrap;html=1;fixedSize=1;" vertex="1" parent="1">
          <mxGeometry x="2510" y="340" width="120" height="40" as="geometry" />
        </mxCell>
        <mxCell id="AT-5X-0NSNNEaCESJetW-106" value="0" style="text;html=1;align=center;verticalAlign=middle;resizable=0;points=[];autosize=1;strokeColor=none;fillColor=none;" vertex="1" parent="1">
          <mxGeometry x="2545" y="270" width="30" height="30" as="geometry" />
        </mxCell>
        <mxCell id="AT-5X-0NSNNEaCESJetW-107" value="return;" style="ellipse;whiteSpace=wrap;html=1;" vertex="1" parent="1">
          <mxGeometry x="2510" y="400" width="120" height="40" as="geometry" />
        </mxCell>
        <mxCell id="AT-5X-0NSNNEaCESJetW-108" value="}" style="text;html=1;align=center;verticalAlign=middle;resizable=0;points=[];autosize=1;strokeColor=none;fillColor=none;" vertex="1" parent="1">
          <mxGeometry x="2565" y="438" width="30" height="30" as="geometry" />
        </mxCell>
        <mxCell id="AT-5X-0NSNNEaCESJetW-109" value="};" style="text;html=1;align=center;verticalAlign=middle;resizable=0;points=[];autosize=1;strokeColor=none;fillColor=none;" vertex="1" parent="1">
          <mxGeometry x="2555" y="460" width="30" height="30" as="geometry" />
        </mxCell>
      </root>
    </mxGraphModel>
  </diagram>
</mxfile>
